<svg width="369" height="411" viewBox="0 0 369 411" fill="none" xmlns="http://www.w3.org/2000/svg">
<rect width="369" height="411" rx="15" fill="white" fill-opacity="0.05"/>
<rect x="0.56173" y="0.56173" width="367.877" height="409.877" rx="14.4383" stroke="white" stroke-opacity="0.5" stroke-width="1.12346"/>
<path d="M116.571 33.216C115.839 33.216 115.143 33.084 114.483 32.82C113.835 32.544 113.277 32.16 112.809 31.668C112.353 31.164 112.041 30.57 111.873 29.886L114.015 29.13C114.231 29.742 114.561 30.21 115.005 30.534C115.449 30.846 115.971 31.002 116.571 31.002C117.051 31.002 117.465 30.912 117.813 30.732C118.173 30.552 118.455 30.294 118.659 29.958C118.863 29.61 118.965 29.202 118.965 28.734C118.965 28.266 118.863 27.87 118.659 27.546C118.467 27.21 118.191 26.952 117.831 26.772C117.471 26.592 117.045 26.502 116.553 26.502C116.325 26.502 116.085 26.526 115.833 26.574C115.593 26.622 115.377 26.694 115.185 26.79L114.627 25.62L118.101 21.66H112.629V19.59H120.855V21.516L117.363 25.602L117.399 24.684C118.203 24.696 118.905 24.87 119.505 25.206C120.105 25.542 120.573 26.004 120.909 26.592C121.245 27.18 121.413 27.87 121.413 28.662C121.413 29.526 121.203 30.306 120.783 31.002C120.363 31.686 119.787 32.226 119.055 32.622C118.323 33.018 117.495 33.216 116.571 33.216ZM130.473 33.216C129.405 33.216 128.469 32.928 127.665 32.352C126.861 31.776 126.231 30.966 125.775 29.922C125.331 28.878 125.109 27.666 125.109 26.286C125.109 24.894 125.331 23.682 125.775 22.65C126.219 21.618 126.843 20.814 127.647 20.238C128.451 19.662 129.387 19.374 130.455 19.374C131.547 19.374 132.489 19.662 133.281 20.238C134.085 20.814 134.715 21.624 135.171 22.668C135.627 23.7 135.855 24.906 135.855 26.286C135.855 27.666 135.627 28.878 135.171 29.922C134.727 30.954 134.103 31.764 133.299 32.352C132.495 32.928 131.553 33.216 130.473 33.216ZM130.491 30.984C131.103 30.984 131.625 30.798 132.057 30.426C132.489 30.042 132.819 29.502 133.047 28.806C133.287 28.098 133.407 27.258 133.407 26.286C133.407 25.314 133.287 24.48 133.047 23.784C132.819 23.076 132.483 22.536 132.039 22.164C131.607 21.792 131.079 21.606 130.455 21.606C129.855 21.606 129.339 21.792 128.907 22.164C128.475 22.536 128.139 23.076 127.899 23.784C127.671 24.48 127.557 25.314 127.557 26.286C127.557 27.246 127.671 28.08 127.899 28.788C128.139 29.484 128.475 30.024 128.907 30.408C129.351 30.792 129.879 30.984 130.491 30.984ZM139.941 33V19.59H144.315C145.731 19.59 146.961 19.878 148.005 20.454C149.061 21.018 149.877 21.804 150.453 22.812C151.029 23.808 151.317 24.966 151.317 26.286C151.317 27.594 151.029 28.758 150.453 29.778C149.877 30.786 149.061 31.578 148.005 32.154C146.961 32.718 145.731 33 144.315 33H139.941ZM142.389 30.84H144.369C145.281 30.84 146.067 30.654 146.727 30.282C147.399 29.898 147.921 29.37 148.293 28.698C148.665 28.014 148.851 27.21 148.851 26.286C148.851 25.35 148.665 24.546 148.293 23.874C147.921 23.202 147.399 22.68 146.727 22.308C146.067 21.936 145.281 21.75 144.369 21.75H142.389V30.84ZM157.802 33.216C157.118 33.216 156.524 33.102 156.02 32.874C155.516 32.646 155.126 32.322 154.85 31.902C154.574 31.47 154.436 30.972 154.436 30.408C154.436 29.868 154.556 29.388 154.796 28.968C155.036 28.536 155.408 28.176 155.912 27.888C156.416 27.6 157.052 27.396 157.82 27.276L161.024 26.754V28.554L158.27 29.022C157.802 29.106 157.454 29.256 157.226 29.472C156.998 29.688 156.884 29.97 156.884 30.318C156.884 30.654 157.01 30.924 157.262 31.128C157.526 31.32 157.85 31.416 158.234 31.416C158.726 31.416 159.158 31.314 159.53 31.11C159.914 30.894 160.208 30.6 160.412 30.228C160.628 29.856 160.736 29.448 160.736 29.004V26.484C160.736 26.064 160.568 25.716 160.232 25.44C159.908 25.152 159.476 25.008 158.936 25.008C158.432 25.008 157.982 25.146 157.586 25.422C157.202 25.686 156.92 26.04 156.74 26.484L154.814 25.548C155.006 25.032 155.306 24.588 155.714 24.216C156.134 23.832 156.626 23.532 157.19 23.316C157.754 23.1 158.366 22.992 159.026 22.992C159.83 22.992 160.538 23.142 161.15 23.442C161.762 23.73 162.236 24.138 162.572 24.666C162.92 25.182 163.094 25.788 163.094 26.484V33H160.862V31.326L161.366 31.29C161.114 31.71 160.814 32.064 160.466 32.352C160.118 32.628 159.722 32.844 159.278 33C158.834 33.144 158.342 33.216 157.802 33.216ZM168.262 36.96C167.998 36.96 167.74 36.936 167.488 36.888C167.236 36.852 167.008 36.78 166.804 36.672V34.71C166.96 34.746 167.146 34.782 167.362 34.818C167.59 34.854 167.8 34.872 167.992 34.872C168.532 34.872 168.922 34.746 169.162 34.494C169.414 34.254 169.636 33.93 169.828 33.522L170.476 32.01L170.44 33.99L166.174 23.208H168.712L171.7 31.164H170.8L173.77 23.208H176.326L172.06 33.99C171.808 34.614 171.502 35.148 171.142 35.592C170.782 36.036 170.362 36.372 169.882 36.6C169.414 36.84 168.874 36.96 168.262 36.96ZM183.147 33.216C182.103 33.216 181.191 32.97 180.411 32.478C179.643 31.974 179.115 31.296 178.827 30.444L180.591 29.598C180.843 30.15 181.191 30.582 181.635 30.894C182.091 31.206 182.595 31.362 183.147 31.362C183.579 31.362 183.921 31.266 184.173 31.074C184.425 30.882 184.551 30.63 184.551 30.318C184.551 30.126 184.497 29.97 184.389 29.85C184.293 29.718 184.155 29.61 183.975 29.526C183.807 29.43 183.621 29.352 183.417 29.292L181.815 28.842C180.987 28.602 180.357 28.236 179.925 27.744C179.505 27.252 179.295 26.67 179.295 25.998C179.295 25.398 179.445 24.876 179.745 24.432C180.057 23.976 180.483 23.622 181.023 23.37C181.575 23.118 182.205 22.992 182.913 22.992C183.837 22.992 184.653 23.214 185.361 23.658C186.069 24.102 186.573 24.726 186.873 25.53L185.073 26.376C184.905 25.932 184.623 25.578 184.227 25.314C183.831 25.05 183.387 24.918 182.895 24.918C182.499 24.918 182.187 25.008 181.959 25.188C181.731 25.368 181.617 25.602 181.617 25.89C181.617 26.07 181.665 26.226 181.761 26.358C181.857 26.49 181.989 26.598 182.157 26.682C182.337 26.766 182.541 26.844 182.769 26.916L184.335 27.384C185.139 27.624 185.757 27.984 186.189 28.464C186.633 28.944 186.855 29.532 186.855 30.228C186.855 30.816 186.699 31.338 186.387 31.794C186.075 32.238 185.643 32.586 185.091 32.838C184.539 33.09 183.891 33.216 183.147 33.216ZM194.656 35.16L200.632 20.31H203.206L197.23 35.16H194.656ZM213.387 33V21.678H210.795V19.59H215.835V33H213.387ZM225.704 33.216C224.636 33.216 223.7 32.928 222.896 32.352C222.092 31.776 221.462 30.966 221.006 29.922C220.562 28.878 220.34 27.666 220.34 26.286C220.34 24.894 220.562 23.682 221.006 22.65C221.45 21.618 222.074 20.814 222.878 20.238C223.682 19.662 224.618 19.374 225.686 19.374C226.778 19.374 227.72 19.662 228.512 20.238C229.316 20.814 229.946 21.624 230.402 22.668C230.858 23.7 231.086 24.906 231.086 26.286C231.086 27.666 230.858 28.878 230.402 29.922C229.958 30.954 229.334 31.764 228.53 32.352C227.726 32.928 226.784 33.216 225.704 33.216ZM225.722 30.984C226.334 30.984 226.856 30.798 227.288 30.426C227.72 30.042 228.05 29.502 228.278 28.806C228.518 28.098 228.638 27.258 228.638 26.286C228.638 25.314 228.518 24.48 228.278 23.784C228.05 23.076 227.714 22.536 227.27 22.164C226.838 21.792 226.31 21.606 225.686 21.606C225.086 21.606 224.57 21.792 224.138 22.164C223.706 22.536 223.37 23.076 223.13 23.784C222.902 24.48 222.788 25.314 222.788 26.286C222.788 27.246 222.902 28.08 223.13 28.788C223.37 29.484 223.706 30.024 224.138 30.408C224.582 30.792 225.11 30.984 225.722 30.984ZM236.631 33L247.503 19.59H250.023L239.151 33H236.631ZM238.737 26.394C238.065 26.394 237.459 26.238 236.919 25.926C236.391 25.602 235.971 25.176 235.659 24.648C235.347 24.12 235.191 23.532 235.191 22.884C235.191 22.236 235.347 21.648 235.659 21.12C235.971 20.58 236.391 20.154 236.919 19.842C237.459 19.53 238.059 19.374 238.719 19.374C239.391 19.374 239.991 19.53 240.519 19.842C241.047 20.154 241.467 20.58 241.779 21.12C242.091 21.648 242.247 22.236 242.247 22.884C242.247 23.532 242.091 24.12 241.779 24.648C241.467 25.176 241.047 25.602 240.519 25.926C239.991 26.238 239.397 26.394 238.737 26.394ZM238.719 24.576C239.079 24.576 239.379 24.498 239.619 24.342C239.859 24.174 240.039 23.964 240.159 23.712C240.291 23.448 240.357 23.172 240.357 22.884C240.357 22.584 240.291 22.308 240.159 22.056C240.039 21.804 239.859 21.594 239.619 21.426C239.379 21.258 239.079 21.174 238.719 21.174C238.383 21.174 238.089 21.258 237.837 21.426C237.597 21.594 237.411 21.81 237.279 22.074C237.147 22.326 237.081 22.596 237.081 22.884C237.081 23.16 237.147 23.43 237.279 23.694C237.411 23.958 237.597 24.174 237.837 24.342C238.089 24.498 238.383 24.576 238.719 24.576ZM247.863 33.216C247.203 33.216 246.603 33.06 246.063 32.748C245.535 32.424 245.115 31.998 244.803 31.47C244.491 30.942 244.335 30.354 244.335 29.706C244.335 29.058 244.491 28.47 244.803 27.942C245.115 27.402 245.535 26.976 246.063 26.664C246.603 26.352 247.203 26.196 247.863 26.196C248.535 26.196 249.135 26.352 249.663 26.664C250.191 26.976 250.611 27.402 250.923 27.942C251.235 28.47 251.391 29.058 251.391 29.706C251.391 30.354 251.235 30.942 250.923 31.47C250.611 31.998 250.191 32.424 249.663 32.748C249.135 33.06 248.535 33.216 247.863 33.216ZM247.863 31.398C248.211 31.398 248.505 31.32 248.745 31.164C248.997 30.996 249.183 30.786 249.303 30.534C249.435 30.27 249.501 29.994 249.501 29.706C249.501 29.406 249.435 29.13 249.303 28.878C249.183 28.626 248.997 28.416 248.745 28.248C248.505 28.08 248.211 27.996 247.863 27.996C247.527 27.996 247.233 28.08 246.981 28.248C246.741 28.416 246.555 28.632 246.423 28.896C246.291 29.148 246.225 29.418 246.225 29.706C246.225 29.982 246.291 30.252 246.423 30.516C246.555 30.78 246.741 30.996 246.981 31.164C247.233 31.32 247.527 31.398 247.863 31.398Z" fill="white"/>
<line y1="53.5741" x2="369" y2="53.5741" stroke="white" stroke-opacity="0.5" stroke-width="0.851734"/>
<line y1="156.574" x2="369" y2="156.574" stroke="white" stroke-opacity="0.5" stroke-width="0.851734"/>
<line y1="201.574" x2="369" y2="201.574" stroke="white" stroke-opacity="0.5" stroke-width="0.851734"/>
<path d="M89.584 88.216C88.852 88.216 88.156 88.084 87.496 87.82C86.848 87.544 86.29 87.16 85.822 86.668C85.366 86.164 85.054 85.57 84.886 84.886L87.028 84.13C87.244 84.742 87.574 85.21 88.018 85.534C88.462 85.846 88.984 86.002 89.584 86.002C90.064 86.002 90.478 85.912 90.826 85.732C91.186 85.552 91.468 85.294 91.672 84.958C91.876 84.61 91.978 84.202 91.978 83.734C91.978 83.266 91.876 82.87 91.672 82.546C91.48 82.21 91.204 81.952 90.844 81.772C90.484 81.592 90.058 81.502 89.566 81.502C89.338 81.502 89.098 81.526 88.846 81.574C88.606 81.622 88.39 81.694 88.198 81.79L87.64 80.62L91.114 76.66H85.642V74.59H93.868V76.516L90.376 80.602L90.412 79.684C91.216 79.696 91.918 79.87 92.518 80.206C93.118 80.542 93.586 81.004 93.922 81.592C94.258 82.18 94.426 82.87 94.426 83.662C94.426 84.526 94.216 85.306 93.796 86.002C93.376 86.686 92.8 87.226 92.068 87.622C91.336 88.018 90.508 88.216 89.584 88.216ZM103.409 88V74.59H105.749L110.771 81.412H109.655L114.569 74.59H116.909V88H114.443V77.38L115.397 77.614L110.303 84.4H110.015L105.047 77.614L105.857 77.38V88H103.409ZM125.865 88.216C124.905 88.216 124.029 87.994 123.237 87.55C122.457 87.106 121.833 86.5 121.365 85.732C120.909 84.964 120.681 84.088 120.681 83.104C120.681 82.12 120.909 81.244 121.365 80.476C121.833 79.708 122.457 79.102 123.237 78.658C124.017 78.214 124.893 77.992 125.865 77.992C126.825 77.992 127.695 78.214 128.475 78.658C129.255 79.102 129.873 79.708 130.329 80.476C130.797 81.232 131.031 82.108 131.031 83.104C131.031 84.088 130.797 84.964 130.329 85.732C129.861 86.5 129.237 87.106 128.457 87.55C127.677 87.994 126.813 88.216 125.865 88.216ZM125.865 86.056C126.393 86.056 126.855 85.93 127.251 85.678C127.659 85.426 127.977 85.078 128.205 84.634C128.445 84.178 128.565 83.668 128.565 83.104C128.565 82.528 128.445 82.024 128.205 81.592C127.977 81.148 127.659 80.8 127.251 80.548C126.855 80.284 126.393 80.152 125.865 80.152C125.325 80.152 124.851 80.284 124.443 80.548C124.035 80.8 123.711 81.148 123.471 81.592C123.243 82.024 123.129 82.528 123.129 83.104C123.129 83.668 123.243 84.178 123.471 84.634C123.711 85.078 124.035 85.426 124.443 85.678C124.851 85.93 125.325 86.056 125.865 86.056ZM134.62 88V78.208H136.834V80.134L136.654 79.792C136.882 79.204 137.254 78.76 137.77 78.46C138.298 78.148 138.91 77.992 139.606 77.992C140.326 77.992 140.962 78.148 141.514 78.46C142.078 78.772 142.516 79.21 142.828 79.774C143.14 80.326 143.296 80.968 143.296 81.7V88H140.938V82.258C140.938 81.826 140.854 81.454 140.686 81.142C140.518 80.83 140.284 80.59 139.984 80.422C139.696 80.242 139.354 80.152 138.958 80.152C138.574 80.152 138.232 80.242 137.932 80.422C137.632 80.59 137.398 80.83 137.23 81.142C137.062 81.454 136.978 81.826 136.978 82.258V88H134.62ZM151.554 88.108C150.45 88.108 149.592 87.808 148.98 87.208C148.38 86.596 148.08 85.738 148.08 84.634V80.314H146.388V78.208H146.568C147.048 78.208 147.42 78.082 147.684 77.83C147.948 77.578 148.08 77.212 148.08 76.732V75.976H150.438V78.208H152.688V80.314H150.438V84.508C150.438 84.832 150.492 85.108 150.6 85.336C150.72 85.564 150.9 85.738 151.14 85.858C151.392 85.978 151.71 86.038 152.094 86.038C152.178 86.038 152.274 86.032 152.382 86.02C152.502 86.008 152.616 85.996 152.724 85.984V88C152.556 88.024 152.364 88.048 152.148 88.072C151.932 88.096 151.734 88.108 151.554 88.108ZM156.325 88V74.374H158.683V80.134L158.359 79.792C158.587 79.204 158.959 78.76 159.475 78.46C160.003 78.148 160.615 77.992 161.311 77.992C162.031 77.992 162.667 78.148 163.219 78.46C163.783 78.772 164.221 79.21 164.533 79.774C164.845 80.326 165.001 80.968 165.001 81.7V88H162.643V82.258C162.643 81.826 162.559 81.454 162.391 81.142C162.223 80.83 161.989 80.59 161.689 80.422C161.401 80.242 161.059 80.152 160.663 80.152C160.279 80.152 159.937 80.242 159.637 80.422C159.337 80.59 159.103 80.83 158.935 81.142C158.767 81.454 158.683 81.826 158.683 82.258V88H156.325ZM172.521 88.216C171.477 88.216 170.565 87.97 169.785 87.478C169.017 86.974 168.489 86.296 168.201 85.444L169.965 84.598C170.217 85.15 170.565 85.582 171.009 85.894C171.465 86.206 171.969 86.362 172.521 86.362C172.953 86.362 173.295 86.266 173.547 86.074C173.799 85.882 173.925 85.63 173.925 85.318C173.925 85.126 173.871 84.97 173.763 84.85C173.667 84.718 173.529 84.61 173.349 84.526C173.181 84.43 172.995 84.352 172.791 84.292L171.189 83.842C170.361 83.602 169.731 83.236 169.299 82.744C168.879 82.252 168.669 81.67 168.669 80.998C168.669 80.398 168.819 79.876 169.119 79.432C169.431 78.976 169.857 78.622 170.397 78.37C170.949 78.118 171.579 77.992 172.287 77.992C173.211 77.992 174.027 78.214 174.735 78.658C175.443 79.102 175.947 79.726 176.247 80.53L174.447 81.376C174.279 80.932 173.997 80.578 173.601 80.314C173.205 80.05 172.761 79.918 172.269 79.918C171.873 79.918 171.561 80.008 171.333 80.188C171.105 80.368 170.991 80.602 170.991 80.89C170.991 81.07 171.039 81.226 171.135 81.358C171.231 81.49 171.363 81.598 171.531 81.682C171.711 81.766 171.915 81.844 172.143 81.916L173.709 82.384C174.513 82.624 175.131 82.984 175.563 83.464C176.007 83.944 176.229 84.532 176.229 85.228C176.229 85.816 176.073 86.338 175.761 86.794C175.449 87.238 175.017 87.586 174.465 87.838C173.913 88.09 173.265 88.216 172.521 88.216ZM184.03 90.16L190.006 75.31H192.58L186.604 90.16H184.03ZM202.761 88V76.678H200.169V74.59H205.209V88H202.761ZM209.535 88V86.146L213.171 82.348C213.891 81.592 214.443 80.992 214.827 80.548C215.223 80.092 215.499 79.702 215.655 79.378C215.811 79.054 215.889 78.724 215.889 78.388C215.889 77.824 215.709 77.38 215.349 77.056C215.001 76.732 214.551 76.57 213.999 76.57C213.423 76.57 212.925 76.738 212.505 77.074C212.085 77.398 211.779 77.878 211.587 78.514L209.445 77.848C209.589 77.14 209.883 76.528 210.327 76.012C210.771 75.484 211.311 75.082 211.947 74.806C212.595 74.518 213.279 74.374 213.999 74.374C214.863 74.374 215.619 74.53 216.267 74.842C216.927 75.154 217.437 75.592 217.797 76.156C218.169 76.72 218.355 77.38 218.355 78.136C218.355 78.616 218.265 79.09 218.085 79.558C217.905 80.026 217.635 80.506 217.275 80.998C216.915 81.478 216.447 82.018 215.871 82.618L212.721 85.93H218.535V88H209.535ZM228.933 84.58C228.525 84.58 228.177 84.52 227.889 84.4C227.601 84.28 227.343 84.142 227.115 83.986C226.899 83.83 226.683 83.692 226.467 83.572C226.263 83.452 226.035 83.392 225.783 83.392C225.507 83.392 225.279 83.488 225.099 83.68C224.919 83.86 224.805 84.13 224.757 84.49H222.831C222.891 83.494 223.155 82.738 223.623 82.222C224.091 81.694 224.721 81.43 225.513 81.43C225.921 81.43 226.269 81.49 226.557 81.61C226.845 81.718 227.097 81.856 227.313 82.024C227.541 82.18 227.757 82.318 227.961 82.438C228.177 82.546 228.405 82.6 228.645 82.6C228.909 82.6 229.125 82.516 229.293 82.348C229.461 82.18 229.581 81.898 229.653 81.502H231.561C231.489 82.51 231.231 83.278 230.787 83.806C230.355 84.322 229.737 84.58 228.933 84.58ZM238.044 88V76.678H235.452V74.59H240.492V88H238.044ZM249.336 88.216C248.628 88.216 247.95 88.084 247.302 87.82C246.666 87.556 246.114 87.184 245.646 86.704C245.19 86.212 244.878 85.63 244.71 84.958L246.834 84.202C247.038 84.814 247.368 85.27 247.824 85.57C248.28 85.858 248.784 86.002 249.336 86.002C249.792 86.002 250.194 85.906 250.542 85.714C250.902 85.51 251.178 85.234 251.37 84.886C251.562 84.526 251.658 84.112 251.658 83.644C251.658 83.176 251.556 82.768 251.352 82.42C251.16 82.072 250.89 81.802 250.542 81.61C250.194 81.406 249.792 81.304 249.336 81.304C248.868 81.304 248.442 81.406 248.058 81.61C247.686 81.814 247.416 82.108 247.248 82.492L245.25 82.042L246.312 74.59H253.62V76.66H247.284L248.202 75.598L247.446 81.214L246.744 80.638C247.08 80.146 247.488 79.786 247.968 79.558C248.46 79.33 249.054 79.216 249.75 79.216C250.638 79.216 251.406 79.408 252.054 79.792C252.714 80.176 253.224 80.698 253.584 81.358C253.944 82.018 254.124 82.78 254.124 83.644C254.124 84.508 253.914 85.288 253.494 85.984C253.074 86.68 252.504 87.226 251.784 87.622C251.064 88.018 250.248 88.216 249.336 88.216ZM259.618 88L270.49 74.59H273.01L262.138 88H259.618ZM261.724 81.394C261.052 81.394 260.446 81.238 259.906 80.926C259.378 80.602 258.958 80.176 258.646 79.648C258.334 79.12 258.178 78.532 258.178 77.884C258.178 77.236 258.334 76.648 258.646 76.12C258.958 75.58 259.378 75.154 259.906 74.842C260.446 74.53 261.046 74.374 261.706 74.374C262.378 74.374 262.978 74.53 263.506 74.842C264.034 75.154 264.454 75.58 264.766 76.12C265.078 76.648 265.234 77.236 265.234 77.884C265.234 78.532 265.078 79.12 264.766 79.648C264.454 80.176 264.034 80.602 263.506 80.926C262.978 81.238 262.384 81.394 261.724 81.394ZM261.706 79.576C262.066 79.576 262.366 79.498 262.606 79.342C262.846 79.174 263.026 78.964 263.146 78.712C263.278 78.448 263.344 78.172 263.344 77.884C263.344 77.584 263.278 77.308 263.146 77.056C263.026 76.804 262.846 76.594 262.606 76.426C262.366 76.258 262.066 76.174 261.706 76.174C261.37 76.174 261.076 76.258 260.824 76.426C260.584 76.594 260.398 76.81 260.266 77.074C260.134 77.326 260.068 77.596 260.068 77.884C260.068 78.16 260.134 78.43 260.266 78.694C260.398 78.958 260.584 79.174 260.824 79.342C261.076 79.498 261.37 79.576 261.706 79.576ZM270.85 88.216C270.19 88.216 269.59 88.06 269.05 87.748C268.522 87.424 268.102 86.998 267.79 86.47C267.478 85.942 267.322 85.354 267.322 84.706C267.322 84.058 267.478 83.47 267.79 82.942C268.102 82.402 268.522 81.976 269.05 81.664C269.59 81.352 270.19 81.196 270.85 81.196C271.522 81.196 272.122 81.352 272.65 81.664C273.178 81.976 273.598 82.402 273.91 82.942C274.222 83.47 274.378 84.058 274.378 84.706C274.378 85.354 274.222 85.942 273.91 86.47C273.598 86.998 273.178 87.424 272.65 87.748C272.122 88.06 271.522 88.216 270.85 88.216ZM270.85 86.398C271.198 86.398 271.492 86.32 271.732 86.164C271.984 85.996 272.17 85.786 272.29 85.534C272.422 85.27 272.488 84.994 272.488 84.706C272.488 84.406 272.422 84.13 272.29 83.878C272.17 83.626 271.984 83.416 271.732 83.248C271.492 83.08 271.198 82.996 270.85 82.996C270.514 82.996 270.22 83.08 269.968 83.248C269.728 83.416 269.542 83.632 269.41 83.896C269.278 84.148 269.212 84.418 269.212 84.706C269.212 84.982 269.278 85.252 269.41 85.516C269.542 85.78 269.728 85.996 269.968 86.164C270.22 86.32 270.514 86.398 270.85 86.398Z" fill="white"/>
<path d="M108.225 285.216C107.493 285.216 106.797 285.084 106.137 284.82C105.489 284.544 104.931 284.16 104.463 283.668C104.007 283.164 103.695 282.57 103.527 281.886L105.669 281.13C105.885 281.742 106.215 282.21 106.659 282.534C107.103 282.846 107.625 283.002 108.225 283.002C108.705 283.002 109.119 282.912 109.467 282.732C109.827 282.552 110.109 282.294 110.313 281.958C110.517 281.61 110.619 281.202 110.619 280.734C110.619 280.266 110.517 279.87 110.313 279.546C110.121 279.21 109.845 278.952 109.485 278.772C109.125 278.592 108.699 278.502 108.207 278.502C107.979 278.502 107.739 278.526 107.487 278.574C107.247 278.622 107.031 278.694 106.839 278.79L106.281 277.62L109.755 273.66H104.283V271.59H112.509V273.516L109.017 277.602L109.053 276.684C109.857 276.696 110.559 276.87 111.159 277.206C111.759 277.542 112.227 278.004 112.563 278.592C112.899 279.18 113.067 279.87 113.067 280.662C113.067 281.526 112.857 282.306 112.437 283.002C112.017 283.686 111.441 284.226 110.709 284.622C109.977 285.018 109.149 285.216 108.225 285.216ZM122.05 285V271.59H124.39L129.412 278.412H128.296L133.21 271.59H135.55V285H133.084V274.38L134.038 274.614L128.944 281.4H128.656L123.688 274.614L124.498 274.38V285H122.05ZM144.507 285.216C143.547 285.216 142.671 284.994 141.879 284.55C141.099 284.106 140.475 283.5 140.007 282.732C139.551 281.964 139.323 281.088 139.323 280.104C139.323 279.12 139.551 278.244 140.007 277.476C140.475 276.708 141.099 276.102 141.879 275.658C142.659 275.214 143.535 274.992 144.507 274.992C145.467 274.992 146.337 275.214 147.117 275.658C147.897 276.102 148.515 276.708 148.971 277.476C149.439 278.232 149.673 279.108 149.673 280.104C149.673 281.088 149.439 281.964 148.971 282.732C148.503 283.5 147.879 284.106 147.099 284.55C146.319 284.994 145.455 285.216 144.507 285.216ZM144.507 283.056C145.035 283.056 145.497 282.93 145.893 282.678C146.301 282.426 146.619 282.078 146.847 281.634C147.087 281.178 147.207 280.668 147.207 280.104C147.207 279.528 147.087 279.024 146.847 278.592C146.619 278.148 146.301 277.8 145.893 277.548C145.497 277.284 145.035 277.152 144.507 277.152C143.967 277.152 143.493 277.284 143.085 277.548C142.677 277.8 142.353 278.148 142.113 278.592C141.885 279.024 141.771 279.528 141.771 280.104C141.771 280.668 141.885 281.178 142.113 281.634C142.353 282.078 142.677 282.426 143.085 282.678C143.493 282.93 143.967 283.056 144.507 283.056ZM153.261 285V275.208H155.475V277.134L155.295 276.792C155.523 276.204 155.895 275.76 156.411 275.46C156.939 275.148 157.551 274.992 158.247 274.992C158.967 274.992 159.603 275.148 160.155 275.46C160.719 275.772 161.157 276.21 161.469 276.774C161.781 277.326 161.937 277.968 161.937 278.7V285H159.579V279.258C159.579 278.826 159.495 278.454 159.327 278.142C159.159 277.83 158.925 277.59 158.625 277.422C158.337 277.242 157.995 277.152 157.599 277.152C157.215 277.152 156.873 277.242 156.573 277.422C156.273 277.59 156.039 277.83 155.871 278.142C155.703 278.454 155.619 278.826 155.619 279.258V285H153.261ZM170.195 285.108C169.091 285.108 168.233 284.808 167.621 284.208C167.021 283.596 166.721 282.738 166.721 281.634V277.314H165.029V275.208H165.209C165.689 275.208 166.061 275.082 166.325 274.83C166.589 274.578 166.721 274.212 166.721 273.732V272.976H169.079V275.208H171.329V277.314H169.079V281.508C169.079 281.832 169.133 282.108 169.241 282.336C169.361 282.564 169.541 282.738 169.781 282.858C170.033 282.978 170.351 283.038 170.735 283.038C170.819 283.038 170.915 283.032 171.023 283.02C171.143 283.008 171.257 282.996 171.365 282.984V285C171.197 285.024 171.005 285.048 170.789 285.072C170.573 285.096 170.375 285.108 170.195 285.108ZM174.967 285V271.374H177.325V277.134L177.001 276.792C177.229 276.204 177.601 275.76 178.117 275.46C178.645 275.148 179.257 274.992 179.953 274.992C180.673 274.992 181.309 275.148 181.861 275.46C182.425 275.772 182.863 276.21 183.175 276.774C183.487 277.326 183.643 277.968 183.643 278.7V285H181.285V279.258C181.285 278.826 181.201 278.454 181.033 278.142C180.865 277.83 180.631 277.59 180.331 277.422C180.043 277.242 179.701 277.152 179.305 277.152C178.921 277.152 178.579 277.242 178.279 277.422C177.979 277.59 177.745 277.83 177.577 278.142C177.409 278.454 177.325 278.826 177.325 279.258V285H174.967ZM191.162 285.216C190.118 285.216 189.206 284.97 188.426 284.478C187.658 283.974 187.13 283.296 186.842 282.444L188.606 281.598C188.858 282.15 189.206 282.582 189.65 282.894C190.106 283.206 190.61 283.362 191.162 283.362C191.594 283.362 191.936 283.266 192.188 283.074C192.44 282.882 192.566 282.63 192.566 282.318C192.566 282.126 192.512 281.97 192.404 281.85C192.308 281.718 192.17 281.61 191.99 281.526C191.822 281.43 191.636 281.352 191.432 281.292L189.83 280.842C189.002 280.602 188.372 280.236 187.94 279.744C187.52 279.252 187.31 278.67 187.31 277.998C187.31 277.398 187.46 276.876 187.76 276.432C188.072 275.976 188.498 275.622 189.038 275.37C189.59 275.118 190.22 274.992 190.928 274.992C191.852 274.992 192.668 275.214 193.376 275.658C194.084 276.102 194.588 276.726 194.888 277.53L193.088 278.376C192.92 277.932 192.638 277.578 192.242 277.314C191.846 277.05 191.402 276.918 190.91 276.918C190.514 276.918 190.202 277.008 189.974 277.188C189.746 277.368 189.632 277.602 189.632 277.89C189.632 278.07 189.68 278.226 189.776 278.358C189.872 278.49 190.004 278.598 190.172 278.682C190.352 278.766 190.556 278.844 190.784 278.916L192.35 279.384C193.154 279.624 193.772 279.984 194.204 280.464C194.648 280.944 194.87 281.532 194.87 282.228C194.87 282.816 194.714 283.338 194.402 283.794C194.09 284.238 193.658 284.586 193.106 284.838C192.554 285.09 191.906 285.216 191.162 285.216ZM202.672 287.16L208.648 272.31H211.222L205.246 287.16H202.672ZM221.402 285V273.678H218.81V271.59H223.85V285H221.402ZM232.694 285.216C231.986 285.216 231.308 285.084 230.66 284.82C230.024 284.556 229.472 284.184 229.004 283.704C228.548 283.212 228.236 282.63 228.068 281.958L230.192 281.202C230.396 281.814 230.726 282.27 231.182 282.57C231.638 282.858 232.142 283.002 232.694 283.002C233.15 283.002 233.552 282.906 233.9 282.714C234.26 282.51 234.536 282.234 234.728 281.886C234.92 281.526 235.016 281.112 235.016 280.644C235.016 280.176 234.914 279.768 234.71 279.42C234.518 279.072 234.248 278.802 233.9 278.61C233.552 278.406 233.15 278.304 232.694 278.304C232.226 278.304 231.8 278.406 231.416 278.61C231.044 278.814 230.774 279.108 230.606 279.492L228.608 279.042L229.67 271.59H236.978V273.66H230.642L231.56 272.598L230.804 278.214L230.102 277.638C230.438 277.146 230.846 276.786 231.326 276.558C231.818 276.33 232.412 276.216 233.108 276.216C233.996 276.216 234.764 276.408 235.412 276.792C236.072 277.176 236.582 277.698 236.942 278.358C237.302 279.018 237.482 279.78 237.482 280.644C237.482 281.508 237.272 282.288 236.852 282.984C236.432 283.68 235.862 284.226 235.142 284.622C234.422 285.018 233.606 285.216 232.694 285.216ZM242.976 285L253.848 271.59H256.368L245.496 285H242.976ZM245.082 278.394C244.41 278.394 243.804 278.238 243.264 277.926C242.736 277.602 242.316 277.176 242.004 276.648C241.692 276.12 241.536 275.532 241.536 274.884C241.536 274.236 241.692 273.648 242.004 273.12C242.316 272.58 242.736 272.154 243.264 271.842C243.804 271.53 244.404 271.374 245.064 271.374C245.736 271.374 246.336 271.53 246.864 271.842C247.392 272.154 247.812 272.58 248.124 273.12C248.436 273.648 248.592 274.236 248.592 274.884C248.592 275.532 248.436 276.12 248.124 276.648C247.812 277.176 247.392 277.602 246.864 277.926C246.336 278.238 245.742 278.394 245.082 278.394ZM245.064 276.576C245.424 276.576 245.724 276.498 245.964 276.342C246.204 276.174 246.384 275.964 246.504 275.712C246.636 275.448 246.702 275.172 246.702 274.884C246.702 274.584 246.636 274.308 246.504 274.056C246.384 273.804 246.204 273.594 245.964 273.426C245.724 273.258 245.424 273.174 245.064 273.174C244.728 273.174 244.434 273.258 244.182 273.426C243.942 273.594 243.756 273.81 243.624 274.074C243.492 274.326 243.426 274.596 243.426 274.884C243.426 275.16 243.492 275.43 243.624 275.694C243.756 275.958 243.942 276.174 244.182 276.342C244.434 276.498 244.728 276.576 245.064 276.576ZM254.208 285.216C253.548 285.216 252.948 285.06 252.408 284.748C251.88 284.424 251.46 283.998 251.148 283.47C250.836 282.942 250.68 282.354 250.68 281.706C250.68 281.058 250.836 280.47 251.148 279.942C251.46 279.402 251.88 278.976 252.408 278.664C252.948 278.352 253.548 278.196 254.208 278.196C254.88 278.196 255.48 278.352 256.008 278.664C256.536 278.976 256.956 279.402 257.268 279.942C257.58 280.47 257.736 281.058 257.736 281.706C257.736 282.354 257.58 282.942 257.268 283.47C256.956 283.998 256.536 284.424 256.008 284.748C255.48 285.06 254.88 285.216 254.208 285.216ZM254.208 283.398C254.556 283.398 254.85 283.32 255.09 283.164C255.342 282.996 255.528 282.786 255.648 282.534C255.78 282.27 255.846 281.994 255.846 281.706C255.846 281.406 255.78 281.13 255.648 280.878C255.528 280.626 255.342 280.416 255.09 280.248C254.85 280.08 254.556 279.996 254.208 279.996C253.872 279.996 253.578 280.08 253.326 280.248C253.086 280.416 252.9 280.632 252.768 280.896C252.636 281.148 252.57 281.418 252.57 281.706C252.57 281.982 252.636 282.252 252.768 282.516C252.9 282.78 253.086 282.996 253.326 283.164C253.578 283.32 253.872 283.398 254.208 283.398Z" fill="#FFEE00"/>
<line y1="108.574" x2="369" y2="108.574" stroke="white" stroke-opacity="0.5" stroke-width="0.851734"/>
<line y1="253.574" x2="369" y2="253.574" stroke="white" stroke-opacity="0.5" stroke-width="0.851734"/>
<line y1="301.574" x2="369" y2="301.574" stroke="white" stroke-opacity="0.5" stroke-width="0.851734"/>
<line y1="358.574" x2="369" y2="358.574" stroke="white" stroke-opacity="0.5" stroke-width="0.851734"/>
<path d="M87.663 143.216C86.751 143.216 85.941 143.024 85.233 142.64C84.537 142.244 83.991 141.716 83.595 141.056C83.199 140.384 83.001 139.622 83.001 138.77C83.001 138.338 83.043 137.906 83.127 137.474C83.223 137.042 83.391 136.58 83.631 136.088C83.883 135.596 84.243 135.05 84.711 134.45L88.455 129.59H91.371L86.817 135.44L86.421 135.008C86.589 134.876 86.763 134.774 86.943 134.702C87.123 134.618 87.303 134.558 87.483 134.522C87.675 134.486 87.873 134.468 88.077 134.468C88.893 134.468 89.619 134.654 90.255 135.026C90.891 135.398 91.389 135.908 91.749 136.556C92.121 137.192 92.307 137.912 92.307 138.716C92.307 139.58 92.109 140.354 91.713 141.038C91.317 141.71 90.765 142.244 90.057 142.64C89.361 143.024 88.563 143.216 87.663 143.216ZM87.663 141.002C88.071 141.002 88.437 140.912 88.761 140.732C89.097 140.54 89.361 140.27 89.553 139.922C89.757 139.574 89.859 139.184 89.859 138.752C89.859 138.296 89.757 137.906 89.553 137.582C89.361 137.246 89.103 136.982 88.779 136.79C88.455 136.598 88.083 136.502 87.663 136.502C87.255 136.502 86.883 136.598 86.547 136.79C86.211 136.982 85.941 137.246 85.737 137.582C85.545 137.906 85.449 138.296 85.449 138.752C85.449 139.184 85.545 139.574 85.737 139.922C85.941 140.27 86.211 140.54 86.547 140.732C86.883 140.912 87.255 141.002 87.663 141.002ZM101.15 143V129.59H103.49L108.512 136.412H107.396L112.31 129.59H114.65V143H112.184V132.38L113.138 132.614L108.044 139.4H107.756L102.788 132.614L103.598 132.38V143H101.15ZM123.607 143.216C122.647 143.216 121.771 142.994 120.979 142.55C120.199 142.106 119.575 141.5 119.107 140.732C118.651 139.964 118.423 139.088 118.423 138.104C118.423 137.12 118.651 136.244 119.107 135.476C119.575 134.708 120.199 134.102 120.979 133.658C121.759 133.214 122.635 132.992 123.607 132.992C124.567 132.992 125.437 133.214 126.217 133.658C126.997 134.102 127.615 134.708 128.071 135.476C128.539 136.232 128.773 137.108 128.773 138.104C128.773 139.088 128.539 139.964 128.071 140.732C127.603 141.5 126.979 142.106 126.199 142.55C125.419 142.994 124.555 143.216 123.607 143.216ZM123.607 141.056C124.135 141.056 124.597 140.93 124.993 140.678C125.401 140.426 125.719 140.078 125.947 139.634C126.187 139.178 126.307 138.668 126.307 138.104C126.307 137.528 126.187 137.024 125.947 136.592C125.719 136.148 125.401 135.8 124.993 135.548C124.597 135.284 124.135 135.152 123.607 135.152C123.067 135.152 122.593 135.284 122.185 135.548C121.777 135.8 121.453 136.148 121.213 136.592C120.985 137.024 120.871 137.528 120.871 138.104C120.871 138.668 120.985 139.178 121.213 139.634C121.453 140.078 121.777 140.426 122.185 140.678C122.593 140.93 123.067 141.056 123.607 141.056ZM132.361 143V133.208H134.575V135.134L134.395 134.792C134.623 134.204 134.995 133.76 135.511 133.46C136.039 133.148 136.651 132.992 137.347 132.992C138.067 132.992 138.703 133.148 139.255 133.46C139.819 133.772 140.257 134.21 140.569 134.774C140.881 135.326 141.037 135.968 141.037 136.7V143H138.679V137.258C138.679 136.826 138.595 136.454 138.427 136.142C138.259 135.83 138.025 135.59 137.725 135.422C137.437 135.242 137.095 135.152 136.699 135.152C136.315 135.152 135.973 135.242 135.673 135.422C135.373 135.59 135.139 135.83 134.971 136.142C134.803 136.454 134.719 136.826 134.719 137.258V143H132.361ZM149.295 143.108C148.191 143.108 147.333 142.808 146.721 142.208C146.121 141.596 145.821 140.738 145.821 139.634V135.314H144.129V133.208H144.309C144.789 133.208 145.161 133.082 145.425 132.83C145.689 132.578 145.821 132.212 145.821 131.732V130.976H148.179V133.208H150.429V135.314H148.179V139.508C148.179 139.832 148.233 140.108 148.341 140.336C148.461 140.564 148.641 140.738 148.881 140.858C149.133 140.978 149.451 141.038 149.835 141.038C149.919 141.038 150.015 141.032 150.123 141.02C150.243 141.008 150.357 140.996 150.465 140.984V143C150.297 143.024 150.105 143.048 149.889 143.072C149.673 143.096 149.475 143.108 149.295 143.108ZM154.066 143V129.374H156.424V135.134L156.1 134.792C156.328 134.204 156.7 133.76 157.216 133.46C157.744 133.148 158.356 132.992 159.052 132.992C159.772 132.992 160.408 133.148 160.96 133.46C161.524 133.772 161.962 134.21 162.274 134.774C162.586 135.326 162.742 135.968 162.742 136.7V143H160.384V137.258C160.384 136.826 160.3 136.454 160.132 136.142C159.964 135.83 159.73 135.59 159.43 135.422C159.142 135.242 158.8 135.152 158.404 135.152C158.02 135.152 157.678 135.242 157.378 135.422C157.078 135.59 156.844 135.83 156.676 136.142C156.508 136.454 156.424 136.826 156.424 137.258V143H154.066ZM170.262 143.216C169.218 143.216 168.306 142.97 167.526 142.478C166.758 141.974 166.23 141.296 165.942 140.444L167.706 139.598C167.958 140.15 168.306 140.582 168.75 140.894C169.206 141.206 169.71 141.362 170.262 141.362C170.694 141.362 171.036 141.266 171.288 141.074C171.54 140.882 171.666 140.63 171.666 140.318C171.666 140.126 171.612 139.97 171.504 139.85C171.408 139.718 171.27 139.61 171.09 139.526C170.922 139.43 170.736 139.352 170.532 139.292L168.93 138.842C168.102 138.602 167.472 138.236 167.04 137.744C166.62 137.252 166.41 136.67 166.41 135.998C166.41 135.398 166.56 134.876 166.86 134.432C167.172 133.976 167.598 133.622 168.138 133.37C168.69 133.118 169.32 132.992 170.028 132.992C170.952 132.992 171.768 133.214 172.476 133.658C173.184 134.102 173.688 134.726 173.988 135.53L172.188 136.376C172.02 135.932 171.738 135.578 171.342 135.314C170.946 135.05 170.502 134.918 170.01 134.918C169.614 134.918 169.302 135.008 169.074 135.188C168.846 135.368 168.732 135.602 168.732 135.89C168.732 136.07 168.78 136.226 168.876 136.358C168.972 136.49 169.104 136.598 169.272 136.682C169.452 136.766 169.656 136.844 169.884 136.916L171.45 137.384C172.254 137.624 172.872 137.984 173.304 138.464C173.748 138.944 173.97 139.532 173.97 140.228C173.97 140.816 173.814 141.338 173.502 141.794C173.19 142.238 172.758 142.586 172.206 142.838C171.654 143.09 171.006 143.216 170.262 143.216ZM181.772 145.16L187.748 130.31H190.322L184.346 145.16H181.772ZM200.502 143V131.678H197.91V129.59H202.95V143H200.502ZM211.794 143.216C211.086 143.216 210.408 143.084 209.76 142.82C209.124 142.556 208.572 142.184 208.104 141.704C207.648 141.212 207.336 140.63 207.168 139.958L209.292 139.202C209.496 139.814 209.826 140.27 210.282 140.57C210.738 140.858 211.242 141.002 211.794 141.002C212.25 141.002 212.652 140.906 213 140.714C213.36 140.51 213.636 140.234 213.828 139.886C214.02 139.526 214.116 139.112 214.116 138.644C214.116 138.176 214.014 137.768 213.81 137.42C213.618 137.072 213.348 136.802 213 136.61C212.652 136.406 212.25 136.304 211.794 136.304C211.326 136.304 210.9 136.406 210.516 136.61C210.144 136.814 209.874 137.108 209.706 137.492L207.708 137.042L208.77 129.59H216.078V131.66H209.742L210.66 130.598L209.904 136.214L209.202 135.638C209.538 135.146 209.946 134.786 210.426 134.558C210.918 134.33 211.512 134.216 212.208 134.216C213.096 134.216 213.864 134.408 214.512 134.792C215.172 135.176 215.682 135.698 216.042 136.358C216.402 137.018 216.582 137.78 216.582 138.644C216.582 139.508 216.372 140.288 215.952 140.984C215.532 141.68 214.962 142.226 214.242 142.622C213.522 143.018 212.706 143.216 211.794 143.216ZM227.008 139.58C226.6 139.58 226.252 139.52 225.964 139.4C225.676 139.28 225.418 139.142 225.19 138.986C224.974 138.83 224.758 138.692 224.542 138.572C224.338 138.452 224.11 138.392 223.858 138.392C223.582 138.392 223.354 138.488 223.174 138.68C222.994 138.86 222.88 139.13 222.832 139.49H220.906C220.966 138.494 221.23 137.738 221.698 137.222C222.166 136.694 222.796 136.43 223.588 136.43C223.996 136.43 224.344 136.49 224.632 136.61C224.92 136.718 225.172 136.856 225.388 137.024C225.616 137.18 225.832 137.318 226.036 137.438C226.252 137.546 226.48 137.6 226.72 137.6C226.984 137.6 227.2 137.516 227.368 137.348C227.536 137.18 227.656 136.898 227.728 136.502H229.636C229.564 137.51 229.306 138.278 228.862 138.806C228.43 139.322 227.812 139.58 227.008 139.58ZM233.833 143V141.146L237.469 137.348C238.189 136.592 238.741 135.992 239.125 135.548C239.521 135.092 239.797 134.702 239.953 134.378C240.109 134.054 240.187 133.724 240.187 133.388C240.187 132.824 240.007 132.38 239.647 132.056C239.299 131.732 238.849 131.57 238.297 131.57C237.721 131.57 237.223 131.738 236.803 132.074C236.383 132.398 236.077 132.878 235.885 133.514L233.743 132.848C233.887 132.14 234.181 131.528 234.625 131.012C235.069 130.484 235.609 130.082 236.245 129.806C236.893 129.518 237.577 129.374 238.297 129.374C239.161 129.374 239.917 129.53 240.565 129.842C241.225 130.154 241.735 130.592 242.095 131.156C242.467 131.72 242.653 132.38 242.653 133.136C242.653 133.616 242.563 134.09 242.383 134.558C242.203 135.026 241.933 135.506 241.573 135.998C241.213 136.478 240.745 137.018 240.169 137.618L237.019 140.93H242.833V143H233.833ZM252.174 143V140.048H246.018V137.996L252.03 129.59H254.586V137.996H256.548V140.048H254.586V143H252.174ZM247.818 138.878L247.386 137.996H252.174V131.516L252.804 131.714L247.818 138.878ZM261.701 143L272.573 129.59H275.093L264.221 143H261.701ZM263.807 136.394C263.135 136.394 262.529 136.238 261.989 135.926C261.461 135.602 261.041 135.176 260.729 134.648C260.417 134.12 260.261 133.532 260.261 132.884C260.261 132.236 260.417 131.648 260.729 131.12C261.041 130.58 261.461 130.154 261.989 129.842C262.529 129.53 263.129 129.374 263.789 129.374C264.461 129.374 265.061 129.53 265.589 129.842C266.117 130.154 266.537 130.58 266.849 131.12C267.161 131.648 267.317 132.236 267.317 132.884C267.317 133.532 267.161 134.12 266.849 134.648C266.537 135.176 266.117 135.602 265.589 135.926C265.061 136.238 264.467 136.394 263.807 136.394ZM263.789 134.576C264.149 134.576 264.449 134.498 264.689 134.342C264.929 134.174 265.109 133.964 265.229 133.712C265.361 133.448 265.427 133.172 265.427 132.884C265.427 132.584 265.361 132.308 265.229 132.056C265.109 131.804 264.929 131.594 264.689 131.426C264.449 131.258 264.149 131.174 263.789 131.174C263.453 131.174 263.159 131.258 262.907 131.426C262.667 131.594 262.481 131.81 262.349 132.074C262.217 132.326 262.151 132.596 262.151 132.884C262.151 133.16 262.217 133.43 262.349 133.694C262.481 133.958 262.667 134.174 262.907 134.342C263.159 134.498 263.453 134.576 263.789 134.576ZM272.933 143.216C272.273 143.216 271.673 143.06 271.133 142.748C270.605 142.424 270.185 141.998 269.873 141.47C269.561 140.942 269.405 140.354 269.405 139.706C269.405 139.058 269.561 138.47 269.873 137.942C270.185 137.402 270.605 136.976 271.133 136.664C271.673 136.352 272.273 136.196 272.933 136.196C273.605 136.196 274.205 136.352 274.733 136.664C275.261 136.976 275.681 137.402 275.993 137.942C276.305 138.47 276.461 139.058 276.461 139.706C276.461 140.354 276.305 140.942 275.993 141.47C275.681 141.998 275.261 142.424 274.733 142.748C274.205 143.06 273.605 143.216 272.933 143.216ZM272.933 141.398C273.281 141.398 273.575 141.32 273.815 141.164C274.067 140.996 274.253 140.786 274.373 140.534C274.505 140.27 274.571 139.994 274.571 139.706C274.571 139.406 274.505 139.13 274.373 138.878C274.253 138.626 274.067 138.416 273.815 138.248C273.575 138.08 273.281 137.996 272.933 137.996C272.597 137.996 272.303 138.08 272.051 138.248C271.811 138.416 271.625 138.632 271.493 138.896C271.361 139.148 271.295 139.418 271.295 139.706C271.295 139.982 271.361 140.252 271.493 140.516C271.625 140.78 271.811 140.996 272.051 141.164C272.303 141.32 272.597 141.398 272.933 141.398Z" fill="white"/>
<path d="M100.896 188V176.678H98.3038V174.59H103.344V188H100.896ZM116.557 188V182.06L112.039 174.59H114.829L118.285 180.422H117.295L120.733 174.59H123.523L119.023 182.042V188H116.557ZM129.613 188.216C128.605 188.216 127.723 187.988 126.967 187.532C126.211 187.076 125.623 186.458 125.203 185.678C124.783 184.898 124.573 184.034 124.573 183.086C124.573 182.102 124.783 181.232 125.203 180.476C125.635 179.708 126.217 179.102 126.949 178.658C127.693 178.214 128.521 177.992 129.433 177.992C130.201 177.992 130.873 178.118 131.449 178.37C132.037 178.622 132.535 178.97 132.943 179.414C133.351 179.858 133.663 180.368 133.879 180.944C134.095 181.508 134.203 182.12 134.203 182.78C134.203 182.948 134.191 183.122 134.167 183.302C134.155 183.482 134.125 183.638 134.077 183.77H126.517V181.97H132.745L131.629 182.816C131.737 182.264 131.707 181.772 131.539 181.34C131.383 180.908 131.119 180.566 130.747 180.314C130.387 180.062 129.949 179.936 129.433 179.936C128.941 179.936 128.503 180.062 128.119 180.314C127.735 180.554 127.441 180.914 127.237 181.394C127.045 181.862 126.973 182.432 127.021 183.104C126.973 183.704 127.051 184.238 127.255 184.706C127.471 185.162 127.783 185.516 128.191 185.768C128.611 186.02 129.091 186.146 129.631 186.146C130.171 186.146 130.627 186.032 130.999 185.804C131.383 185.576 131.683 185.27 131.899 184.886L133.807 185.822C133.615 186.29 133.315 186.704 132.907 187.064C132.499 187.424 132.013 187.706 131.449 187.91C130.897 188.114 130.285 188.216 129.613 188.216ZM140.726 188.216C140.042 188.216 139.448 188.102 138.944 187.874C138.44 187.646 138.05 187.322 137.774 186.902C137.498 186.47 137.36 185.972 137.36 185.408C137.36 184.868 137.48 184.388 137.72 183.968C137.96 183.536 138.332 183.176 138.836 182.888C139.34 182.6 139.976 182.396 140.744 182.276L143.948 181.754V183.554L141.194 184.022C140.726 184.106 140.378 184.256 140.15 184.472C139.922 184.688 139.808 184.97 139.808 185.318C139.808 185.654 139.934 185.924 140.186 186.128C140.45 186.32 140.774 186.416 141.158 186.416C141.65 186.416 142.082 186.314 142.454 186.11C142.838 185.894 143.132 185.6 143.336 185.228C143.552 184.856 143.66 184.448 143.66 184.004V181.484C143.66 181.064 143.492 180.716 143.156 180.44C142.832 180.152 142.4 180.008 141.86 180.008C141.356 180.008 140.906 180.146 140.51 180.422C140.126 180.686 139.844 181.04 139.664 181.484L137.738 180.548C137.93 180.032 138.23 179.588 138.638 179.216C139.058 178.832 139.55 178.532 140.114 178.316C140.678 178.1 141.29 177.992 141.95 177.992C142.754 177.992 143.462 178.142 144.074 178.442C144.686 178.73 145.16 179.138 145.496 179.666C145.844 180.182 146.018 180.788 146.018 181.484V188H143.786V186.326L144.29 186.29C144.038 186.71 143.738 187.064 143.39 187.352C143.042 187.628 142.646 187.844 142.202 188C141.758 188.144 141.266 188.216 140.726 188.216ZM149.997 188V178.208H152.211V180.386L152.031 180.062C152.259 179.33 152.613 178.82 153.093 178.532C153.585 178.244 154.173 178.1 154.857 178.1H155.433V180.188H154.587C153.915 180.188 153.375 180.398 152.967 180.818C152.559 181.226 152.355 181.802 152.355 182.546V188H149.997ZM162.719 190.16L168.695 175.31H171.269L165.293 190.16H162.719ZM179.163 188V186.146L182.799 182.348C183.519 181.592 184.071 180.992 184.455 180.548C184.851 180.092 185.127 179.702 185.283 179.378C185.439 179.054 185.517 178.724 185.517 178.388C185.517 177.824 185.337 177.38 184.977 177.056C184.629 176.732 184.179 176.57 183.627 176.57C183.051 176.57 182.553 176.738 182.133 177.074C181.713 177.398 181.407 177.878 181.215 178.514L179.073 177.848C179.217 177.14 179.511 176.528 179.955 176.012C180.399 175.484 180.939 175.082 181.575 174.806C182.223 174.518 182.907 174.374 183.627 174.374C184.491 174.374 185.247 174.53 185.895 174.842C186.555 175.154 187.065 175.592 187.425 176.156C187.797 176.72 187.983 177.38 187.983 178.136C187.983 178.616 187.893 179.09 187.713 179.558C187.533 180.026 187.263 180.506 186.903 180.998C186.543 181.478 186.075 182.018 185.499 182.618L182.349 185.93H188.163V188H179.163ZM197.504 188V185.048H191.348V182.996L197.36 174.59H199.916V182.996H201.878V185.048H199.916V188H197.504ZM193.148 183.878L192.716 182.996H197.504V176.516L198.134 176.714L193.148 183.878ZM211.963 184.58C211.555 184.58 211.207 184.52 210.919 184.4C210.631 184.28 210.373 184.142 210.145 183.986C209.929 183.83 209.713 183.692 209.497 183.572C209.293 183.452 209.065 183.392 208.813 183.392C208.537 183.392 208.309 183.488 208.129 183.68C207.949 183.86 207.835 184.13 207.787 184.49H205.861C205.921 183.494 206.185 182.738 206.653 182.222C207.121 181.694 207.751 181.43 208.543 181.43C208.951 181.43 209.299 181.49 209.587 181.61C209.875 181.718 210.127 181.856 210.343 182.024C210.571 182.18 210.787 182.318 210.991 182.438C211.207 182.546 211.435 182.6 211.675 182.6C211.939 182.6 212.155 182.516 212.323 182.348C212.491 182.18 212.611 181.898 212.683 181.502H214.591C214.519 182.51 214.261 183.278 213.817 183.806C213.385 184.322 212.767 184.58 211.963 184.58ZM223.234 188.216C222.502 188.216 221.806 188.084 221.146 187.82C220.498 187.544 219.94 187.16 219.472 186.668C219.016 186.164 218.704 185.57 218.536 184.886L220.678 184.13C220.894 184.742 221.224 185.21 221.668 185.534C222.112 185.846 222.634 186.002 223.234 186.002C223.714 186.002 224.128 185.912 224.476 185.732C224.836 185.552 225.118 185.294 225.322 184.958C225.526 184.61 225.628 184.202 225.628 183.734C225.628 183.266 225.526 182.87 225.322 182.546C225.13 182.21 224.854 181.952 224.494 181.772C224.134 181.592 223.708 181.502 223.216 181.502C222.988 181.502 222.748 181.526 222.496 181.574C222.256 181.622 222.04 181.694 221.848 181.79L221.29 180.62L224.764 176.66H219.292V174.59H227.518V176.516L224.026 180.602L224.062 179.684C224.866 179.696 225.568 179.87 226.168 180.206C226.768 180.542 227.236 181.004 227.572 181.592C227.908 182.18 228.076 182.87 228.076 183.662C228.076 184.526 227.866 185.306 227.446 186.002C227.026 186.686 226.45 187.226 225.718 187.622C224.986 188.018 224.158 188.216 223.234 188.216ZM236.2 188.216C235.288 188.216 234.478 188.024 233.77 187.64C233.074 187.244 232.528 186.716 232.132 186.056C231.736 185.384 231.538 184.622 231.538 183.77C231.538 183.338 231.58 182.906 231.664 182.474C231.76 182.042 231.928 181.58 232.168 181.088C232.42 180.596 232.78 180.05 233.248 179.45L236.992 174.59H239.908L235.354 180.44L234.958 180.008C235.126 179.876 235.3 179.774 235.48 179.702C235.66 179.618 235.84 179.558 236.02 179.522C236.212 179.486 236.41 179.468 236.614 179.468C237.43 179.468 238.156 179.654 238.792 180.026C239.428 180.398 239.926 180.908 240.286 181.556C240.658 182.192 240.844 182.912 240.844 183.716C240.844 184.58 240.646 185.354 240.25 186.038C239.854 186.71 239.302 187.244 238.594 187.64C237.898 188.024 237.1 188.216 236.2 188.216ZM236.2 186.002C236.608 186.002 236.974 185.912 237.298 185.732C237.634 185.54 237.898 185.27 238.09 184.922C238.294 184.574 238.396 184.184 238.396 183.752C238.396 183.296 238.294 182.906 238.09 182.582C237.898 182.246 237.64 181.982 237.316 181.79C236.992 181.598 236.62 181.502 236.2 181.502C235.792 181.502 235.42 181.598 235.084 181.79C234.748 181.982 234.478 182.246 234.274 182.582C234.082 182.906 233.986 183.296 233.986 183.752C233.986 184.184 234.082 184.574 234.274 184.922C234.478 185.27 234.748 185.54 235.084 185.732C235.42 185.912 235.792 186.002 236.2 186.002ZM246.146 188L257.018 174.59H259.538L248.666 188H246.146ZM248.252 181.394C247.58 181.394 246.974 181.238 246.434 180.926C245.906 180.602 245.486 180.176 245.174 179.648C244.862 179.12 244.706 178.532 244.706 177.884C244.706 177.236 244.862 176.648 245.174 176.12C245.486 175.58 245.906 175.154 246.434 174.842C246.974 174.53 247.574 174.374 248.234 174.374C248.906 174.374 249.506 174.53 250.034 174.842C250.562 175.154 250.982 175.58 251.294 176.12C251.606 176.648 251.762 177.236 251.762 177.884C251.762 178.532 251.606 179.12 251.294 179.648C250.982 180.176 250.562 180.602 250.034 180.926C249.506 181.238 248.912 181.394 248.252 181.394ZM248.234 179.576C248.594 179.576 248.894 179.498 249.134 179.342C249.374 179.174 249.554 178.964 249.674 178.712C249.806 178.448 249.872 178.172 249.872 177.884C249.872 177.584 249.806 177.308 249.674 177.056C249.554 176.804 249.374 176.594 249.134 176.426C248.894 176.258 248.594 176.174 248.234 176.174C247.898 176.174 247.604 176.258 247.352 176.426C247.112 176.594 246.926 176.81 246.794 177.074C246.662 177.326 246.596 177.596 246.596 177.884C246.596 178.16 246.662 178.43 246.794 178.694C246.926 178.958 247.112 179.174 247.352 179.342C247.604 179.498 247.898 179.576 248.234 179.576ZM257.378 188.216C256.718 188.216 256.118 188.06 255.578 187.748C255.05 187.424 254.63 186.998 254.318 186.47C254.006 185.942 253.85 185.354 253.85 184.706C253.85 184.058 254.006 183.47 254.318 182.942C254.63 182.402 255.05 181.976 255.578 181.664C256.118 181.352 256.718 181.196 257.378 181.196C258.05 181.196 258.65 181.352 259.178 181.664C259.706 181.976 260.126 182.402 260.438 182.942C260.75 183.47 260.906 184.058 260.906 184.706C260.906 185.354 260.75 185.942 260.438 186.47C260.126 186.998 259.706 187.424 259.178 187.748C258.65 188.06 258.05 188.216 257.378 188.216ZM257.378 186.398C257.726 186.398 258.02 186.32 258.26 186.164C258.512 185.996 258.698 185.786 258.818 185.534C258.95 185.27 259.016 184.994 259.016 184.706C259.016 184.406 258.95 184.13 258.818 183.878C258.698 183.626 258.512 183.416 258.26 183.248C258.02 183.08 257.726 182.996 257.378 182.996C257.042 182.996 256.748 183.08 256.496 183.248C256.256 183.416 256.07 183.632 255.938 183.896C255.806 184.148 255.74 184.418 255.74 184.706C255.74 184.982 255.806 185.252 255.938 185.516C256.07 185.78 256.256 185.996 256.496 186.164C256.748 186.32 257.042 186.398 257.378 186.398Z" fill="white"/>
<path d="M59.3828 229.148V227.078H67.0328V229.148H59.3828ZM86.6855 233V219.59H95.6315V221.75H89.1335V225.458H94.8215V227.618H89.1335V233H86.6855ZM102.151 233.216C101.395 233.216 100.735 233.048 100.171 232.712C99.6185 232.376 99.1925 231.908 98.8925 231.308C98.6045 230.708 98.4605 230.006 98.4605 229.202V223.208H100.819V229.004C100.819 229.412 100.897 229.772 101.053 230.084C101.221 230.384 101.455 230.624 101.755 230.804C102.067 230.972 102.415 231.056 102.799 231.056C103.183 231.056 103.525 230.972 103.825 230.804C104.125 230.624 104.359 230.378 104.527 230.066C104.695 229.754 104.779 229.382 104.779 228.95V223.208H107.137V233H104.905V231.074L105.103 231.416C104.875 232.016 104.497 232.466 103.969 232.766C103.453 233.066 102.847 233.216 102.151 233.216ZM111.128 233V219.374H113.486V233H111.128ZM117.464 233V219.374H119.822V233H117.464ZM127.898 233L132.524 219.59H135.692L140.318 233H137.654L136.7 230.12H131.516L130.544 233H127.898ZM132.218 227.96H135.998L133.766 221.282H134.45L132.218 227.96ZM143.61 233V219.59H148.614C149.526 219.59 150.33 219.758 151.026 220.094C151.734 220.418 152.286 220.898 152.682 221.534C153.078 222.158 153.276 222.92 153.276 223.82C153.276 224.708 153.072 225.47 152.664 226.106C152.268 226.73 151.722 227.21 151.026 227.546C150.33 227.882 149.526 228.05 148.614 228.05H146.058V233H143.61ZM146.058 225.89H148.65C149.094 225.89 149.478 225.806 149.802 225.638C150.126 225.458 150.378 225.212 150.558 224.9C150.738 224.588 150.828 224.228 150.828 223.82C150.828 223.4 150.738 223.04 150.558 222.74C150.378 222.428 150.126 222.188 149.802 222.02C149.478 221.84 149.094 221.75 148.65 221.75H146.058V225.89ZM157.082 233V219.59H162.068C162.98 219.59 163.784 219.758 164.48 220.094C165.188 220.418 165.74 220.898 166.136 221.534C166.532 222.158 166.73 222.92 166.73 223.82C166.73 224.744 166.508 225.53 166.064 226.178C165.632 226.826 165.044 227.306 164.3 227.618L167.378 233H164.606L161.312 227.114L162.896 228.05H159.53V233H157.082ZM159.53 225.89H162.104C162.548 225.89 162.932 225.806 163.256 225.638C163.58 225.458 163.832 225.212 164.012 224.9C164.192 224.588 164.282 224.228 164.282 223.82C164.282 223.4 164.192 223.04 164.012 222.74C163.832 222.428 163.58 222.188 163.256 222.02C162.932 221.84 162.548 221.75 162.104 221.75H159.53V225.89ZM175.782 233V219.59H180.786C181.698 219.59 182.502 219.758 183.198 220.094C183.906 220.418 184.458 220.898 184.854 221.534C185.25 222.158 185.448 222.92 185.448 223.82C185.448 224.708 185.244 225.47 184.836 226.106C184.44 226.73 183.894 227.21 183.198 227.546C182.502 227.882 181.698 228.05 180.786 228.05H178.23V233H175.782ZM178.23 225.89H180.822C181.266 225.89 181.65 225.806 181.974 225.638C182.298 225.458 182.55 225.212 182.73 224.9C182.91 224.588 183 224.228 183 223.82C183 223.4 182.91 223.04 182.73 222.74C182.55 222.428 182.298 222.188 181.974 222.02C181.65 221.84 181.266 221.75 180.822 221.75H178.23V225.89ZM189.056 233V223.208H191.27V225.386L191.09 225.062C191.318 224.33 191.672 223.82 192.152 223.532C192.644 223.244 193.232 223.1 193.916 223.1H194.492V225.188H193.646C192.974 225.188 192.434 225.398 192.026 225.818C191.618 226.226 191.414 226.802 191.414 227.546V233H189.056ZM202.376 233.216C201.416 233.216 200.54 232.994 199.748 232.55C198.968 232.106 198.344 231.5 197.876 230.732C197.42 229.964 197.192 229.088 197.192 228.104C197.192 227.12 197.42 226.244 197.876 225.476C198.344 224.708 198.968 224.102 199.748 223.658C200.528 223.214 201.404 222.992 202.376 222.992C203.336 222.992 204.206 223.214 204.986 223.658C205.766 224.102 206.384 224.708 206.84 225.476C207.308 226.232 207.542 227.108 207.542 228.104C207.542 229.088 207.308 229.964 206.84 230.732C206.372 231.5 205.748 232.106 204.968 232.55C204.188 232.994 203.324 233.216 202.376 233.216ZM202.376 231.056C202.904 231.056 203.366 230.93 203.762 230.678C204.17 230.426 204.488 230.078 204.716 229.634C204.956 229.178 205.076 228.668 205.076 228.104C205.076 227.528 204.956 227.024 204.716 226.592C204.488 226.148 204.17 225.8 203.762 225.548C203.366 225.284 202.904 225.152 202.376 225.152C201.836 225.152 201.362 225.284 200.954 225.548C200.546 225.8 200.222 226.148 199.982 226.592C199.754 227.024 199.64 227.528 199.64 228.104C199.64 228.668 199.754 229.178 199.982 229.634C200.222 230.078 200.546 230.426 200.954 230.678C201.362 230.93 201.836 231.056 202.376 231.056ZM211.13 233V223.208H213.344V225.476L213.092 225.098C213.272 224.39 213.632 223.862 214.172 223.514C214.712 223.166 215.348 222.992 216.08 222.992C216.884 222.992 217.592 223.202 218.204 223.622C218.816 224.042 219.212 224.594 219.392 225.278L218.726 225.332C219.026 224.552 219.476 223.97 220.076 223.586C220.676 223.19 221.366 222.992 222.146 222.992C222.842 222.992 223.46 223.148 224 223.46C224.552 223.772 224.984 224.21 225.296 224.774C225.608 225.326 225.764 225.968 225.764 226.7V233H223.406V227.258C223.406 226.826 223.328 226.454 223.172 226.142C223.016 225.83 222.8 225.59 222.524 225.422C222.248 225.242 221.912 225.152 221.516 225.152C221.144 225.152 220.814 225.242 220.526 225.422C220.238 225.59 220.016 225.83 219.86 226.142C219.704 226.454 219.626 226.826 219.626 227.258V233H217.268V227.258C217.268 226.826 217.19 226.454 217.034 226.142C216.878 225.83 216.656 225.59 216.368 225.422C216.092 225.242 215.762 225.152 215.378 225.152C215.006 225.152 214.676 225.242 214.388 225.422C214.1 225.59 213.878 225.83 213.722 226.142C213.566 226.454 213.488 226.826 213.488 227.258V233H211.13ZM234.347 233.216C233.387 233.216 232.511 232.994 231.719 232.55C230.939 232.106 230.315 231.5 229.847 230.732C229.391 229.964 229.163 229.088 229.163 228.104C229.163 227.12 229.391 226.244 229.847 225.476C230.315 224.708 230.939 224.102 231.719 223.658C232.499 223.214 233.375 222.992 234.347 222.992C235.307 222.992 236.177 223.214 236.957 223.658C237.737 224.102 238.355 224.708 238.811 225.476C239.279 226.232 239.513 227.108 239.513 228.104C239.513 229.088 239.279 229.964 238.811 230.732C238.343 231.5 237.719 232.106 236.939 232.55C236.159 232.994 235.295 233.216 234.347 233.216ZM234.347 231.056C234.875 231.056 235.337 230.93 235.733 230.678C236.141 230.426 236.459 230.078 236.687 229.634C236.927 229.178 237.047 228.668 237.047 228.104C237.047 227.528 236.927 227.024 236.687 226.592C236.459 226.148 236.141 225.8 235.733 225.548C235.337 225.284 234.875 225.152 234.347 225.152C233.807 225.152 233.333 225.284 232.925 225.548C232.517 225.8 232.193 226.148 231.953 226.592C231.725 227.024 231.611 227.528 231.611 228.104C231.611 228.668 231.725 229.178 231.953 229.634C232.193 230.078 232.517 230.426 232.925 230.678C233.333 230.93 233.807 231.056 234.347 231.056ZM247.39 233.108C246.286 233.108 245.428 232.808 244.816 232.208C244.216 231.596 243.916 230.738 243.916 229.634V225.314H242.224V223.208H242.404C242.884 223.208 243.256 223.082 243.52 222.83C243.784 222.578 243.916 222.212 243.916 221.732V220.976H246.274V223.208H248.524V225.314H246.274V229.508C246.274 229.832 246.328 230.108 246.436 230.336C246.556 230.564 246.736 230.738 246.976 230.858C247.228 230.978 247.546 231.038 247.93 231.038C248.014 231.038 248.11 231.032 248.218 231.02C248.338 231.008 248.452 230.996 248.56 230.984V233C248.392 233.024 248.2 233.048 247.984 233.072C247.768 233.096 247.57 233.108 247.39 233.108ZM252.161 233V223.208H254.519V233H252.161ZM252.161 222.11V219.59H254.519V222.11H252.161ZM263.284 233.216C262.324 233.216 261.448 232.994 260.656 232.55C259.876 232.106 259.252 231.5 258.784 230.732C258.328 229.964 258.1 229.088 258.1 228.104C258.1 227.12 258.328 226.244 258.784 225.476C259.252 224.708 259.876 224.102 260.656 223.658C261.436 223.214 262.312 222.992 263.284 222.992C264.244 222.992 265.114 223.214 265.894 223.658C266.674 224.102 267.292 224.708 267.748 225.476C268.216 226.232 268.45 227.108 268.45 228.104C268.45 229.088 268.216 229.964 267.748 230.732C267.28 231.5 266.656 232.106 265.876 232.55C265.096 232.994 264.232 233.216 263.284 233.216ZM263.284 231.056C263.812 231.056 264.274 230.93 264.67 230.678C265.078 230.426 265.396 230.078 265.624 229.634C265.864 229.178 265.984 228.668 265.984 228.104C265.984 227.528 265.864 227.024 265.624 226.592C265.396 226.148 265.078 225.8 264.67 225.548C264.274 225.284 263.812 225.152 263.284 225.152C262.744 225.152 262.27 225.284 261.862 225.548C261.454 225.8 261.13 226.148 260.89 226.592C260.662 227.024 260.548 227.528 260.548 228.104C260.548 228.668 260.662 229.178 260.89 229.634C261.13 230.078 261.454 230.426 261.862 230.678C262.27 230.93 262.744 231.056 263.284 231.056ZM272.039 233V223.208H274.253V225.134L274.073 224.792C274.301 224.204 274.673 223.76 275.189 223.46C275.717 223.148 276.329 222.992 277.025 222.992C277.745 222.992 278.381 223.148 278.933 223.46C279.497 223.772 279.935 224.21 280.247 224.774C280.559 225.326 280.715 225.968 280.715 226.7V233H278.357V227.258C278.357 226.826 278.273 226.454 278.105 226.142C277.937 225.83 277.703 225.59 277.403 225.422C277.115 225.242 276.773 225.152 276.377 225.152C275.993 225.152 275.651 225.242 275.351 225.422C275.051 225.59 274.817 225.83 274.649 226.142C274.481 226.454 274.397 226.826 274.397 227.258V233H272.039ZM299.992 229.148V227.078H307.642V229.148H299.992Z" fill="#FFEE00"/>
<path d="M106.471 340.216C105.559 340.216 104.749 340.024 104.041 339.64C103.345 339.244 102.799 338.716 102.403 338.056C102.007 337.384 101.809 336.622 101.809 335.77C101.809 335.338 101.851 334.906 101.935 334.474C102.031 334.042 102.199 333.58 102.439 333.088C102.691 332.596 103.051 332.05 103.519 331.45L107.263 326.59H110.179L105.625 332.44L105.229 332.008C105.397 331.876 105.571 331.774 105.751 331.702C105.931 331.618 106.111 331.558 106.291 331.522C106.483 331.486 106.681 331.468 106.885 331.468C107.701 331.468 108.427 331.654 109.063 332.026C109.699 332.398 110.197 332.908 110.557 333.556C110.929 334.192 111.115 334.912 111.115 335.716C111.115 336.58 110.917 337.354 110.521 338.038C110.125 338.71 109.573 339.244 108.865 339.64C108.169 340.024 107.371 340.216 106.471 340.216ZM106.471 338.002C106.879 338.002 107.245 337.912 107.569 337.732C107.905 337.54 108.169 337.27 108.361 336.922C108.565 336.574 108.667 336.184 108.667 335.752C108.667 335.296 108.565 334.906 108.361 334.582C108.169 334.246 107.911 333.982 107.587 333.79C107.263 333.598 106.891 333.502 106.471 333.502C106.063 333.502 105.691 333.598 105.355 333.79C105.019 333.982 104.749 334.246 104.545 334.582C104.353 334.906 104.257 335.296 104.257 335.752C104.257 336.184 104.353 336.574 104.545 336.922C104.749 337.27 105.019 337.54 105.355 337.732C105.691 337.912 106.063 338.002 106.471 338.002ZM119.959 340V326.59H122.299L127.321 333.412H126.205L131.119 326.59H133.459V340H130.993V329.38L131.947 329.614L126.853 336.4H126.565L121.597 329.614L122.407 329.38V340H119.959ZM142.415 340.216C141.455 340.216 140.579 339.994 139.787 339.55C139.007 339.106 138.383 338.5 137.915 337.732C137.459 336.964 137.231 336.088 137.231 335.104C137.231 334.12 137.459 333.244 137.915 332.476C138.383 331.708 139.007 331.102 139.787 330.658C140.567 330.214 141.443 329.992 142.415 329.992C143.375 329.992 144.245 330.214 145.025 330.658C145.805 331.102 146.423 331.708 146.879 332.476C147.347 333.232 147.581 334.108 147.581 335.104C147.581 336.088 147.347 336.964 146.879 337.732C146.411 338.5 145.787 339.106 145.007 339.55C144.227 339.994 143.363 340.216 142.415 340.216ZM142.415 338.056C142.943 338.056 143.405 337.93 143.801 337.678C144.209 337.426 144.527 337.078 144.755 336.634C144.995 336.178 145.115 335.668 145.115 335.104C145.115 334.528 144.995 334.024 144.755 333.592C144.527 333.148 144.209 332.8 143.801 332.548C143.405 332.284 142.943 332.152 142.415 332.152C141.875 332.152 141.401 332.284 140.993 332.548C140.585 332.8 140.261 333.148 140.021 333.592C139.793 334.024 139.679 334.528 139.679 335.104C139.679 335.668 139.793 336.178 140.021 336.634C140.261 337.078 140.585 337.426 140.993 337.678C141.401 337.93 141.875 338.056 142.415 338.056ZM151.169 340V330.208H153.383V332.134L153.203 331.792C153.431 331.204 153.803 330.76 154.319 330.46C154.847 330.148 155.459 329.992 156.155 329.992C156.875 329.992 157.511 330.148 158.063 330.46C158.627 330.772 159.065 331.21 159.377 331.774C159.689 332.326 159.845 332.968 159.845 333.7V340H157.487V334.258C157.487 333.826 157.403 333.454 157.235 333.142C157.067 332.83 156.833 332.59 156.533 332.422C156.245 332.242 155.903 332.152 155.507 332.152C155.123 332.152 154.781 332.242 154.481 332.422C154.181 332.59 153.947 332.83 153.779 333.142C153.611 333.454 153.527 333.826 153.527 334.258V340H151.169ZM168.103 340.108C166.999 340.108 166.141 339.808 165.529 339.208C164.929 338.596 164.629 337.738 164.629 336.634V332.314H162.937V330.208H163.117C163.597 330.208 163.969 330.082 164.233 329.83C164.497 329.578 164.629 329.212 164.629 328.732V327.976H166.987V330.208H169.237V332.314H166.987V336.508C166.987 336.832 167.041 337.108 167.149 337.336C167.269 337.564 167.449 337.738 167.689 337.858C167.941 337.978 168.259 338.038 168.643 338.038C168.727 338.038 168.823 338.032 168.931 338.02C169.051 338.008 169.165 337.996 169.273 337.984V340C169.105 340.024 168.913 340.048 168.697 340.072C168.481 340.096 168.283 340.108 168.103 340.108ZM172.875 340V326.374H175.233V332.134L174.909 331.792C175.137 331.204 175.509 330.76 176.025 330.46C176.553 330.148 177.165 329.992 177.861 329.992C178.581 329.992 179.217 330.148 179.769 330.46C180.333 330.772 180.771 331.21 181.083 331.774C181.395 332.326 181.551 332.968 181.551 333.7V340H179.193V334.258C179.193 333.826 179.109 333.454 178.941 333.142C178.773 332.83 178.539 332.59 178.239 332.422C177.951 332.242 177.609 332.152 177.213 332.152C176.829 332.152 176.487 332.242 176.187 332.422C175.887 332.59 175.653 332.83 175.485 333.142C175.317 333.454 175.233 333.826 175.233 334.258V340H172.875ZM189.071 340.216C188.027 340.216 187.115 339.97 186.335 339.478C185.567 338.974 185.039 338.296 184.751 337.444L186.515 336.598C186.767 337.15 187.115 337.582 187.559 337.894C188.015 338.206 188.519 338.362 189.071 338.362C189.503 338.362 189.845 338.266 190.097 338.074C190.349 337.882 190.475 337.63 190.475 337.318C190.475 337.126 190.421 336.97 190.313 336.85C190.217 336.718 190.079 336.61 189.899 336.526C189.731 336.43 189.545 336.352 189.341 336.292L187.739 335.842C186.911 335.602 186.281 335.236 185.849 334.744C185.429 334.252 185.219 333.67 185.219 332.998C185.219 332.398 185.369 331.876 185.669 331.432C185.981 330.976 186.407 330.622 186.947 330.37C187.499 330.118 188.129 329.992 188.837 329.992C189.761 329.992 190.577 330.214 191.285 330.658C191.993 331.102 192.497 331.726 192.797 332.53L190.997 333.376C190.829 332.932 190.547 332.578 190.151 332.314C189.755 332.05 189.311 331.918 188.819 331.918C188.423 331.918 188.111 332.008 187.883 332.188C187.655 332.368 187.541 332.602 187.541 332.89C187.541 333.07 187.589 333.226 187.685 333.358C187.781 333.49 187.913 333.598 188.081 333.682C188.261 333.766 188.465 333.844 188.693 333.916L190.259 334.384C191.063 334.624 191.681 334.984 192.113 335.464C192.557 335.944 192.779 336.532 192.779 337.228C192.779 337.816 192.623 338.338 192.311 338.794C191.999 339.238 191.567 339.586 191.015 339.838C190.463 340.09 189.815 340.216 189.071 340.216ZM200.58 342.16L206.556 327.31H209.13L203.154 342.16H200.58ZM217.025 340V338.146L220.661 334.348C221.381 333.592 221.933 332.992 222.317 332.548C222.713 332.092 222.989 331.702 223.145 331.378C223.301 331.054 223.379 330.724 223.379 330.388C223.379 329.824 223.199 329.38 222.839 329.056C222.491 328.732 222.041 328.57 221.489 328.57C220.913 328.57 220.415 328.738 219.995 329.074C219.575 329.398 219.269 329.878 219.077 330.514L216.935 329.848C217.079 329.14 217.373 328.528 217.817 328.012C218.261 327.484 218.801 327.082 219.437 326.806C220.085 326.518 220.769 326.374 221.489 326.374C222.353 326.374 223.109 326.53 223.757 326.842C224.417 327.154 224.927 327.592 225.287 328.156C225.659 328.72 225.845 329.38 225.845 330.136C225.845 330.616 225.755 331.09 225.575 331.558C225.395 332.026 225.125 332.506 224.765 332.998C224.405 333.478 223.937 334.018 223.361 334.618L220.211 337.93H226.025V340H217.025ZM235.365 340V337.048H229.209V334.996L235.221 326.59H237.777V334.996H239.739V337.048H237.777V340H235.365ZM231.009 335.878L230.577 334.996H235.365V328.516L235.995 328.714L231.009 335.878ZM244.892 340L255.764 326.59H258.284L247.412 340H244.892ZM246.998 333.394C246.326 333.394 245.72 333.238 245.18 332.926C244.652 332.602 244.232 332.176 243.92 331.648C243.608 331.12 243.452 330.532 243.452 329.884C243.452 329.236 243.608 328.648 243.92 328.12C244.232 327.58 244.652 327.154 245.18 326.842C245.72 326.53 246.32 326.374 246.98 326.374C247.652 326.374 248.252 326.53 248.78 326.842C249.308 327.154 249.728 327.58 250.04 328.12C250.352 328.648 250.508 329.236 250.508 329.884C250.508 330.532 250.352 331.12 250.04 331.648C249.728 332.176 249.308 332.602 248.78 332.926C248.252 333.238 247.658 333.394 246.998 333.394ZM246.98 331.576C247.34 331.576 247.64 331.498 247.88 331.342C248.12 331.174 248.3 330.964 248.42 330.712C248.552 330.448 248.618 330.172 248.618 329.884C248.618 329.584 248.552 329.308 248.42 329.056C248.3 328.804 248.12 328.594 247.88 328.426C247.64 328.258 247.34 328.174 246.98 328.174C246.644 328.174 246.35 328.258 246.098 328.426C245.858 328.594 245.672 328.81 245.54 329.074C245.408 329.326 245.342 329.596 245.342 329.884C245.342 330.16 245.408 330.43 245.54 330.694C245.672 330.958 245.858 331.174 246.098 331.342C246.35 331.498 246.644 331.576 246.98 331.576ZM256.124 340.216C255.464 340.216 254.864 340.06 254.324 339.748C253.796 339.424 253.376 338.998 253.064 338.47C252.752 337.942 252.596 337.354 252.596 336.706C252.596 336.058 252.752 335.47 253.064 334.942C253.376 334.402 253.796 333.976 254.324 333.664C254.864 333.352 255.464 333.196 256.124 333.196C256.796 333.196 257.396 333.352 257.924 333.664C258.452 333.976 258.872 334.402 259.184 334.942C259.496 335.47 259.652 336.058 259.652 336.706C259.652 337.354 259.496 337.942 259.184 338.47C258.872 338.998 258.452 339.424 257.924 339.748C257.396 340.06 256.796 340.216 256.124 340.216ZM256.124 338.398C256.472 338.398 256.766 338.32 257.006 338.164C257.258 337.996 257.444 337.786 257.564 337.534C257.696 337.27 257.762 336.994 257.762 336.706C257.762 336.406 257.696 336.13 257.564 335.878C257.444 335.626 257.258 335.416 257.006 335.248C256.766 335.08 256.472 334.996 256.124 334.996C255.788 334.996 255.494 335.08 255.242 335.248C255.002 335.416 254.816 335.632 254.684 335.896C254.552 336.148 254.486 336.418 254.486 336.706C254.486 336.982 254.552 337.252 254.684 337.516C254.816 337.78 255.002 337.996 255.242 338.164C255.494 338.32 255.788 338.398 256.124 338.398Z" fill="#FFEE00"/>
<path d="M124.208 388V376.678H121.616V374.59H126.656V388H124.208ZM139.869 388V382.06L135.351 374.59H138.141L141.597 380.422H140.607L144.045 374.59H146.835L142.335 382.042V388H139.869ZM152.926 388.216C151.918 388.216 151.036 387.988 150.28 387.532C149.524 387.076 148.936 386.458 148.516 385.678C148.096 384.898 147.886 384.034 147.886 383.086C147.886 382.102 148.096 381.232 148.516 380.476C148.948 379.708 149.53 379.102 150.262 378.658C151.006 378.214 151.834 377.992 152.746 377.992C153.514 377.992 154.186 378.118 154.762 378.37C155.35 378.622 155.848 378.97 156.256 379.414C156.664 379.858 156.976 380.368 157.192 380.944C157.408 381.508 157.516 382.12 157.516 382.78C157.516 382.948 157.504 383.122 157.48 383.302C157.468 383.482 157.438 383.638 157.39 383.77H149.83V381.97H156.058L154.942 382.816C155.05 382.264 155.02 381.772 154.852 381.34C154.696 380.908 154.432 380.566 154.06 380.314C153.7 380.062 153.262 379.936 152.746 379.936C152.254 379.936 151.816 380.062 151.432 380.314C151.048 380.554 150.754 380.914 150.55 381.394C150.358 381.862 150.286 382.432 150.334 383.104C150.286 383.704 150.364 384.238 150.568 384.706C150.784 385.162 151.096 385.516 151.504 385.768C151.924 386.02 152.404 386.146 152.944 386.146C153.484 386.146 153.94 386.032 154.312 385.804C154.696 385.576 154.996 385.27 155.212 384.886L157.12 385.822C156.928 386.29 156.628 386.704 156.22 387.064C155.812 387.424 155.326 387.706 154.762 387.91C154.21 388.114 153.598 388.216 152.926 388.216ZM164.038 388.216C163.354 388.216 162.76 388.102 162.256 387.874C161.752 387.646 161.362 387.322 161.086 386.902C160.81 386.47 160.672 385.972 160.672 385.408C160.672 384.868 160.792 384.388 161.032 383.968C161.272 383.536 161.644 383.176 162.148 382.888C162.652 382.6 163.288 382.396 164.056 382.276L167.26 381.754V383.554L164.506 384.022C164.038 384.106 163.69 384.256 163.462 384.472C163.234 384.688 163.12 384.97 163.12 385.318C163.12 385.654 163.246 385.924 163.498 386.128C163.762 386.32 164.086 386.416 164.47 386.416C164.962 386.416 165.394 386.314 165.766 386.11C166.15 385.894 166.444 385.6 166.648 385.228C166.864 384.856 166.972 384.448 166.972 384.004V381.484C166.972 381.064 166.804 380.716 166.468 380.44C166.144 380.152 165.712 380.008 165.172 380.008C164.668 380.008 164.218 380.146 163.822 380.422C163.438 380.686 163.156 381.04 162.976 381.484L161.05 380.548C161.242 380.032 161.542 379.588 161.95 379.216C162.37 378.832 162.862 378.532 163.426 378.316C163.99 378.1 164.602 377.992 165.262 377.992C166.066 377.992 166.774 378.142 167.386 378.442C167.998 378.73 168.472 379.138 168.808 379.666C169.156 380.182 169.33 380.788 169.33 381.484V388H167.098V386.326L167.602 386.29C167.35 386.71 167.05 387.064 166.702 387.352C166.354 387.628 165.958 387.844 165.514 388C165.07 388.144 164.578 388.216 164.038 388.216ZM173.309 388V378.208H175.523V380.386L175.343 380.062C175.571 379.33 175.925 378.82 176.405 378.532C176.897 378.244 177.485 378.1 178.169 378.1H178.745V380.188H177.899C177.227 380.188 176.687 380.398 176.279 380.818C175.871 381.226 175.667 381.802 175.667 382.546V388H173.309ZM186.031 390.16L192.007 375.31H194.581L188.605 390.16H186.031ZM206.922 388.216C206.19 388.216 205.494 388.084 204.834 387.82C204.186 387.544 203.628 387.16 203.16 386.668C202.704 386.164 202.392 385.57 202.224 384.886L204.366 384.13C204.582 384.742 204.912 385.21 205.356 385.534C205.8 385.846 206.322 386.002 206.922 386.002C207.402 386.002 207.816 385.912 208.164 385.732C208.524 385.552 208.806 385.294 209.01 384.958C209.214 384.61 209.316 384.202 209.316 383.734C209.316 383.266 209.214 382.87 209.01 382.546C208.818 382.21 208.542 381.952 208.182 381.772C207.822 381.592 207.396 381.502 206.904 381.502C206.676 381.502 206.436 381.526 206.184 381.574C205.944 381.622 205.728 381.694 205.536 381.79L204.978 380.62L208.452 376.66H202.98V374.59H211.206V376.516L207.714 380.602L207.75 379.684C208.554 379.696 209.256 379.87 209.856 380.206C210.456 380.542 210.924 381.004 211.26 381.592C211.596 382.18 211.764 382.87 211.764 383.662C211.764 384.526 211.554 385.306 211.134 386.002C210.714 386.686 210.138 387.226 209.406 387.622C208.674 388.018 207.846 388.216 206.922 388.216ZM219.888 388.216C218.976 388.216 218.166 388.024 217.458 387.64C216.762 387.244 216.216 386.716 215.82 386.056C215.424 385.384 215.226 384.622 215.226 383.77C215.226 383.338 215.268 382.906 215.352 382.474C215.448 382.042 215.616 381.58 215.856 381.088C216.108 380.596 216.468 380.05 216.936 379.45L220.68 374.59H223.596L219.042 380.44L218.646 380.008C218.814 379.876 218.988 379.774 219.168 379.702C219.348 379.618 219.528 379.558 219.708 379.522C219.9 379.486 220.098 379.468 220.302 379.468C221.118 379.468 221.844 379.654 222.48 380.026C223.116 380.398 223.614 380.908 223.974 381.556C224.346 382.192 224.532 382.912 224.532 383.716C224.532 384.58 224.334 385.354 223.938 386.038C223.542 386.71 222.99 387.244 222.282 387.64C221.586 388.024 220.788 388.216 219.888 388.216ZM219.888 386.002C220.296 386.002 220.662 385.912 220.986 385.732C221.322 385.54 221.586 385.27 221.778 384.922C221.982 384.574 222.084 384.184 222.084 383.752C222.084 383.296 221.982 382.906 221.778 382.582C221.586 382.246 221.328 381.982 221.004 381.79C220.68 381.598 220.308 381.502 219.888 381.502C219.48 381.502 219.108 381.598 218.772 381.79C218.436 381.982 218.166 382.246 217.962 382.582C217.77 382.906 217.674 383.296 217.674 383.752C217.674 384.184 217.77 384.574 217.962 384.922C218.166 385.27 218.436 385.54 218.772 385.732C219.108 385.912 219.48 386.002 219.888 386.002ZM229.834 388L240.706 374.59H243.226L232.354 388H229.834ZM231.94 381.394C231.268 381.394 230.662 381.238 230.122 380.926C229.594 380.602 229.174 380.176 228.862 379.648C228.55 379.12 228.394 378.532 228.394 377.884C228.394 377.236 228.55 376.648 228.862 376.12C229.174 375.58 229.594 375.154 230.122 374.842C230.662 374.53 231.262 374.374 231.922 374.374C232.594 374.374 233.194 374.53 233.722 374.842C234.25 375.154 234.67 375.58 234.982 376.12C235.294 376.648 235.45 377.236 235.45 377.884C235.45 378.532 235.294 379.12 234.982 379.648C234.67 380.176 234.25 380.602 233.722 380.926C233.194 381.238 232.6 381.394 231.94 381.394ZM231.922 379.576C232.282 379.576 232.582 379.498 232.822 379.342C233.062 379.174 233.242 378.964 233.362 378.712C233.494 378.448 233.56 378.172 233.56 377.884C233.56 377.584 233.494 377.308 233.362 377.056C233.242 376.804 233.062 376.594 232.822 376.426C232.582 376.258 232.282 376.174 231.922 376.174C231.586 376.174 231.292 376.258 231.04 376.426C230.8 376.594 230.614 376.81 230.482 377.074C230.35 377.326 230.284 377.596 230.284 377.884C230.284 378.16 230.35 378.43 230.482 378.694C230.614 378.958 230.8 379.174 231.04 379.342C231.292 379.498 231.586 379.576 231.922 379.576ZM241.066 388.216C240.406 388.216 239.806 388.06 239.266 387.748C238.738 387.424 238.318 386.998 238.006 386.47C237.694 385.942 237.538 385.354 237.538 384.706C237.538 384.058 237.694 383.47 238.006 382.942C238.318 382.402 238.738 381.976 239.266 381.664C239.806 381.352 240.406 381.196 241.066 381.196C241.738 381.196 242.338 381.352 242.866 381.664C243.394 381.976 243.814 382.402 244.126 382.942C244.438 383.47 244.594 384.058 244.594 384.706C244.594 385.354 244.438 385.942 244.126 386.47C243.814 386.998 243.394 387.424 242.866 387.748C242.338 388.06 241.738 388.216 241.066 388.216ZM241.066 386.398C241.414 386.398 241.708 386.32 241.948 386.164C242.2 385.996 242.386 385.786 242.506 385.534C242.638 385.27 242.704 384.994 242.704 384.706C242.704 384.406 242.638 384.13 242.506 383.878C242.386 383.626 242.2 383.416 241.948 383.248C241.708 383.08 241.414 382.996 241.066 382.996C240.73 382.996 240.436 383.08 240.184 383.248C239.944 383.416 239.758 383.632 239.626 383.896C239.494 384.148 239.428 384.418 239.428 384.706C239.428 384.982 239.494 385.252 239.626 385.516C239.758 385.78 239.944 385.996 240.184 386.164C240.436 386.32 240.73 386.398 241.066 386.398Z" fill="#FFEE00"/>
<path d="M349.584 22L339.792 33.335L330 22" stroke="white" stroke-width="4"/>
</svg>
