<svg width="186" height="186" viewBox="0 0 186 186" fill="none" xmlns="http://www.w3.org/2000/svg">
<path d="M88.9003 4.26477C91.1378 1.93712 94.8622 1.93712 97.0997 4.26477L98.2074 5.41697C100.137 7.42406 103.236 7.73918 105.53 6.16157L106.846 5.25591C109.507 3.42633 113.155 4.17603 114.878 6.90646L115.731 8.25803C117.217 10.6124 120.189 11.5449 122.754 10.4613L124.226 9.83931C127.2 8.5827 130.622 10.0514 131.761 13.0728L132.324 14.5684C133.306 17.1738 136.029 18.6854 138.759 18.1403L140.327 17.8273C143.493 17.1951 146.55 19.3227 147.057 22.5114L147.307 24.0898C147.744 26.8394 150.108 28.8683 152.892 28.8839L154.49 28.8929C157.719 28.911 160.285 31.6104 160.139 34.8358L160.067 36.4324C159.942 39.2137 161.848 41.6768 164.572 42.2525L166.136 42.583C169.295 43.2507 171.265 46.4113 170.473 49.5415L170.081 51.0909C169.399 53.79 170.77 56.5865 173.323 57.6987L174.788 58.3372C177.748 59.6271 179.041 63.1196 177.636 66.0263L176.94 67.4652C175.728 69.9716 176.508 72.9869 178.785 74.5902L180.091 75.5106C182.731 77.3699 183.295 81.0512 181.333 83.6155L180.362 84.8848C178.67 87.0959 178.828 90.2067 180.734 92.2353L181.829 93.3999C184.04 95.7525 183.852 99.472 181.414 101.589L180.207 102.637C178.105 104.462 177.633 107.541 179.092 109.912L179.93 111.273C181.623 114.022 180.689 117.628 177.875 119.211L176.482 119.994C174.055 121.359 172.973 124.28 173.926 126.896L174.472 128.398C175.577 131.432 173.937 134.775 170.861 135.759L169.339 136.246C166.687 137.095 165.04 139.738 165.446 142.492L165.679 144.073C166.15 147.268 163.87 150.213 160.66 150.557L159.071 150.728C156.303 151.025 154.157 153.283 154 156.062L153.91 157.658C153.729 160.882 150.903 163.308 147.689 162.999L146.098 162.846C143.327 162.58 140.77 164.36 140.057 167.051L139.648 168.596C138.821 171.717 135.565 173.524 132.479 172.575L130.951 172.105C128.29 171.287 125.428 172.515 124.188 175.008L123.476 176.438C122.038 179.329 118.484 180.444 115.652 178.893L114.251 178.125C111.809 176.788 108.758 177.415 107.041 179.607L106.056 180.865C104.065 183.407 100.36 183.784 97.8985 181.695L96.68 180.66C94.5574 178.859 91.4426 178.859 89.32 180.66L88.1015 181.695C85.6399 183.784 81.9347 183.407 79.9441 180.865L78.9587 179.607C77.2423 177.415 74.1912 176.788 71.7494 178.125L70.3477 178.893C67.5159 180.444 63.9624 179.329 62.5242 176.438L61.8123 175.008C60.5722 172.515 57.7098 171.287 55.0488 172.105L53.5212 172.575C50.4352 173.524 47.1788 171.717 46.352 168.596L45.9427 167.051C45.2298 164.36 42.6733 162.58 39.9019 162.846L38.311 162.999C35.0971 163.308 32.2712 160.882 32.0896 157.658L31.9997 156.062C31.8431 153.283 29.6971 151.025 26.9289 150.728L25.3398 150.557C22.1295 150.213 19.8498 147.268 20.3209 144.073L20.554 142.492C20.9602 139.738 19.3125 137.095 16.6608 136.246L15.1386 135.759C12.0634 134.775 10.4232 131.432 11.5276 128.398L12.0743 126.896C13.0265 124.28 11.9447 121.359 9.51811 119.994L8.12506 119.211C5.31086 117.628 4.37735 114.022 6.06984 111.273L6.90764 109.912C8.36704 107.541 7.89537 104.462 5.79313 102.637L4.58631 101.589C2.14831 99.472 1.95968 95.7525 4.17101 93.3999L5.26563 92.2353C7.17242 90.2067 7.33019 87.0959 5.63841 84.8848L4.66722 83.6155C2.70524 81.0512 3.26921 77.3699 5.90885 75.5106L7.21549 74.5902C9.4916 72.9869 10.2723 69.9715 9.06029 67.4652L8.36449 66.0263C6.95885 63.1196 8.25233 59.6271 11.2122 58.3372L12.6774 57.6987C15.2296 56.5865 16.6014 53.79 15.9187 51.0909L15.5267 49.5415C14.735 46.4113 16.705 43.2507 19.864 42.583L21.4277 42.2525C24.1516 41.6768 26.0582 39.2137 25.9328 36.4324L25.8608 34.8358C25.7153 31.6104 28.2812 28.911 31.5099 28.8929L33.1081 28.8839C35.8922 28.8683 38.2556 26.8394 38.6926 24.0898L38.9435 22.5114C39.4503 19.3227 42.5071 17.1951 45.6733 17.8273L47.2406 18.1403C49.9708 18.6854 52.6942 17.1738 53.6758 14.5684L54.2393 13.0728C55.3776 10.0514 58.8001 8.5827 61.7742 9.83931L63.2465 10.4613C65.811 11.5449 68.783 10.6124 70.2689 8.25803L71.1219 6.90646C72.8451 4.17603 76.4932 3.42633 79.1535 5.25591L80.4704 6.16157C82.7644 7.73918 85.8632 7.42406 87.7926 5.41697L88.9003 4.26477Z" fill="url(#paint0_linear_1327_5221)"/>
<path d="M26.0938 93.0002C26.0938 56.3259 55.8241 26.0938 92.4984 26.0938C129.173 26.0938 158.903 56.3259 158.903 93.0002C158.903 129.675 129.173 159.907 92.4984 159.907C55.8241 159.907 26.0938 129.675 26.0938 93.0002Z" fill="black" fill-opacity="0.04"/>
<g filter="url(#filter0_i_1327_5221)">
<path d="M131.252 61.0493C130.929 60.8939 130.606 60.7696 130.315 60.6142C128.117 59.6508 125.854 58.8116 123.591 58.0036C122.977 57.8171 122.395 57.6307 121.781 57.4131C119.745 56.7605 117.708 56.17 115.607 55.6727C114.799 55.4863 113.959 55.2998 113.118 55.0822C111.243 54.6471 109.304 54.3053 107.397 54.0567C106.427 53.9013 105.425 53.777 104.488 53.6837C102.678 53.4662 100.835 53.3108 98.9926 53.1865C97.9582 53.1243 96.9238 53.0621 95.8248 53.0311C94.8874 53 93.9823 53 93.0126 53C92.1398 53 91.2994 53 90.3943 53.0311C89.3599 53.0621 88.2609 53.0932 87.2265 53.1865C85.384 53.3108 83.5416 53.4662 81.7314 53.6837C80.7294 53.808 79.7596 53.9013 78.8222 54.0567C76.9151 54.3674 74.9756 54.7093 73.1008 55.0822C72.2604 55.2687 71.4523 55.4552 70.6119 55.6727C68.5431 56.17 66.4744 56.7605 64.4379 57.4131C63.8238 57.5996 63.2419 57.7861 62.5954 58.0036C60.3004 58.7806 58.07 59.6197 55.872 60.5831C55.5488 60.7385 55.2255 60.8628 54.9023 61.0182C52.381 62.137 49.892 63.3802 47.5 64.6855C47.5 67.3582 47.6293 69.9377 47.8556 72.5172C47.8879 72.9523 47.9202 73.3252 47.9849 73.7603C48.2111 76.0291 48.5344 78.2667 48.9869 80.4733C49.1162 81.157 49.2779 81.8096 49.3748 82.5244C49.7627 84.4824 50.3122 86.4092 50.8294 88.305C51.0557 89.1441 51.3466 90.0454 51.6375 90.8845C52.187 92.6249 52.8012 94.3031 53.48 95.9814C53.8679 96.9448 54.2881 97.9082 54.676 98.8406C56.8417 97.038 59.1367 95.3598 61.5287 93.868C63.8561 92.4074 66.3127 91.1331 68.8664 90.0143C71.3553 88.8955 73.9413 87.9631 76.6242 87.2483C78.5313 86.72 80.5354 86.2538 82.5395 85.912C83.3153 85.7877 84.0587 85.6944 84.8345 85.5701C87.3558 85.2283 89.8771 85.0418 92.4954 85.0418C92.657 85.0418 92.8186 85.0418 92.9802 85.0418C93.1742 85.0418 93.4328 85.0418 93.6267 85.0418C96.245 85.0729 98.7986 85.2593 101.288 85.6323C102.063 85.7566 102.839 85.8498 103.615 86.0052C105.619 86.3471 107.591 86.8133 109.498 87.3416C112.181 88.1185 114.734 89.0509 117.256 90.1386C119.809 91.2575 122.266 92.5628 124.593 94.0234C126.985 95.5152 129.28 97.1934 131.414 99.027C131.866 98.0636 132.254 97.0691 132.642 96.0746C133.289 94.4585 133.87 92.7492 134.452 91.1021C132.157 89.3617 129.798 87.7456 127.276 86.2849C124.884 84.8553 122.363 83.6122 119.745 82.5244C117.223 81.4367 114.605 80.5354 111.922 79.7585C110.953 79.4788 109.95 79.2301 108.948 78.9815C107.268 78.6086 105.554 78.2356 103.809 77.987C102.322 77.7695 100.803 77.5519 99.2835 77.3965C98.0552 77.2722 96.7622 77.21 95.4692 77.179C94.6288 77.1479 93.7883 77.1479 92.9156 77.1479C92.1075 77.1479 91.364 77.1479 90.5559 77.179C89.263 77.21 88.0023 77.3033 86.7417 77.3965C85.2224 77.5208 83.7032 77.7073 82.2163 77.9248C80.5031 78.2045 78.8222 78.5464 77.1414 78.9193C76.1393 79.1369 75.1373 79.4166 74.1352 79.6963C71.4523 80.4733 68.834 81.4056 66.3127 82.4312C63.6945 83.5189 61.1732 84.7932 58.7812 86.1606C58.7812 86.1295 58.7489 86.0363 58.7489 86.0052C57.9731 83.3946 57.3912 80.7219 56.9064 77.987C56.9064 77.9248 56.874 77.8627 56.874 77.8005C56.3892 75.0656 56.0659 72.2997 55.9043 69.4715C58.5226 68.1973 61.2055 67.0785 63.9531 66.084C63.9854 66.084 63.9854 66.0529 64.0177 66.0529C66.7006 65.0895 69.4805 64.2814 72.2604 63.5977H72.2927C74.9756 62.9451 77.6909 62.4167 80.4707 62.0127C80.5031 62.0127 80.6001 62.0127 80.6647 61.9816C83.3153 61.6087 85.9982 61.329 88.7134 61.2047C88.7781 61.2047 88.9074 61.2047 89.0044 61.2047C90.2973 61.1736 91.6226 61.1425 92.9156 61.1425C94.2732 61.1425 95.6955 61.1736 96.9885 61.2047C97.0531 61.2047 97.1824 61.2047 97.2794 61.2047C99.9946 61.3601 102.678 61.5776 105.328 61.9816C105.393 61.9816 105.457 61.9816 105.522 62.0127C108.302 62.4478 111.017 62.9761 113.7 63.6288H113.732C116.545 64.3125 119.292 65.1827 121.975 66.1461C122.007 66.1461 122.04 66.1461 122.04 66.1772C124.82 67.1717 127.503 68.2905 130.088 69.5648C132.804 70.8701 135.454 72.3307 138.008 73.9468C138.04 73.5117 138.073 73.0455 138.137 72.6415C138.364 70.0931 138.493 67.5136 138.493 64.903C136.327 63.4423 133.838 62.2303 131.252 61.0493Z" fill="#BE8D11"/>
<path d="M115.389 97.4348C112.849 96.2826 110.211 95.3225 107.475 94.6184C105.13 93.9783 102.655 93.4982 100.212 93.2422C99.7239 93.2102 99.2354 93.1141 98.812 93.0821C97.3464 92.9541 95.8808 92.8901 94.3827 92.8901C92.9171 92.8901 91.5167 92.9221 90.1162 93.0501C89.6277 93.0821 89.1718 93.1141 88.7158 93.2102C86.2081 93.4982 83.798 93.9143 81.4205 94.5544C78.6848 95.2585 76.0142 96.2186 73.5064 97.3708C70.9661 98.523 68.5561 99.8672 66.2437 101.403C63.8988 103.004 61.6842 104.732 59.6324 106.684C60.4466 108.188 61.3259 109.661 62.2704 111.133C62.8892 112.093 63.4754 113.021 64.1268 113.949C65.1364 115.422 66.146 116.83 67.2208 118.238C67.8722 119.07 68.5235 119.902 69.2074 120.702C70.4125 122.175 71.6826 123.551 72.9528 124.959C73.5716 125.631 74.1904 126.271 74.8417 126.911C76.5679 124.767 78.6848 122.911 81.0623 121.406C83.6026 119.806 86.4686 118.654 89.53 118.046C91.1584 117.726 92.7868 117.566 94.5455 117.566C96.3368 117.566 98.0303 117.758 99.6587 118.078C102.72 118.718 105.554 119.87 108.094 121.502C106.107 123.487 104.023 125.343 101.841 127.135C101.776 127.199 101.678 127.263 101.613 127.327C101.385 127.519 101.124 127.711 100.896 127.871C100.408 128.256 99.9193 128.64 99.3982 129.024C99.3656 129.056 99.3005 129.088 99.2679 129.12C98.812 129.472 98.356 129.792 97.8675 130.144C97.7046 130.272 97.5092 130.4 97.3464 130.496C96.9882 130.752 96.6299 131.008 96.2716 131.232C95.718 131.616 95.1643 131.968 94.6107 132.352C92.4286 130.912 90.2791 129.376 88.2273 127.743C85.1984 128.512 82.6411 130.08 80.1985 131.84C80.4265 132.032 80.4109 132.032 80.6715 132.224C80.7692 132.32 80.8669 132.416 81.0297 132.544C82.8535 134.048 84.7425 135.521 86.6966 136.897C87.0223 137.121 87.3479 137.345 87.6736 137.569C89.9208 139.169 92.2657 140.609 94.7084 141.986C95.8808 141.314 97.0533 140.609 98.1932 139.905C99.3331 139.201 100.473 138.433 101.58 137.665C101.939 137.441 102.297 137.153 102.655 136.897C104.544 135.553 106.4 134.112 108.192 132.608C108.485 132.352 108.778 132.096 109.071 131.84C109.332 131.616 109.592 131.392 109.82 131.168C111.351 129.824 112.849 128.416 114.314 126.975C114.998 126.303 115.65 125.631 116.301 124.927C117.539 123.583 118.776 122.175 119.949 120.798C120.633 119.966 121.317 119.102 122.001 118.206C93.9593 99.9952 75.4931 115.166 75.4931 115.166C75.428 115.102 75.3628 115.005 75.2977 114.941C73.6367 112.893 72.0735 110.749 70.5753 108.541C72.8225 106.94 75.2977 105.596 77.8706 104.54C80.5412 103.388 83.3095 102.524 86.1755 101.948C88.4227 101.499 90.735 101.243 93.0799 101.147C93.5685 101.147 94.057 101.115 94.5455 101.115C95.0992 101.115 95.6203 101.115 96.1739 101.147C98.5189 101.211 100.831 101.499 103.046 101.979C105.944 102.588 108.713 103.452 111.351 104.604C113.924 105.724 116.366 107.068 118.613 108.637C120.926 110.237 123.043 112.061 124.964 114.077C125.616 113.117 126.267 112.125 126.853 111.133C127.733 109.693 128.579 108.284 129.394 106.812C127.244 104.86 125.062 103.068 122.717 101.499C120.372 99.9312 117.93 98.587 115.389 97.4348Z" fill="#BE8D11"/>
</g>
<path d="M50.781 154.817C50.8912 154.643 50.9226 154.466 50.8752 154.286C50.8304 154.106 50.7008 153.933 50.4866 153.768C50.3447 153.659 50.2123 153.587 50.0893 153.551C49.9663 153.515 49.8562 153.512 49.7589 153.54C49.6627 153.568 49.5821 153.622 49.517 153.704C49.4618 153.769 49.429 153.839 49.4188 153.914C49.4101 153.989 49.4192 154.069 49.4461 154.154C49.4757 154.237 49.5205 154.326 49.5805 154.419C49.6406 154.512 49.7138 154.61 49.8002 154.711L50.1221 155.1C50.3092 155.322 50.4572 155.539 50.5662 155.752C50.6766 155.966 50.7469 156.174 50.7773 156.376C50.8092 156.58 50.7992 156.778 50.7472 156.971C50.6953 157.164 50.6002 157.351 50.4619 157.534C50.24 157.82 49.9784 158.01 49.6771 158.105C49.3758 158.201 49.0487 158.199 48.6956 158.102C48.3441 158.006 47.9791 157.812 47.6008 157.521C47.221 157.229 46.9338 156.918 46.739 156.587C46.5443 156.256 46.4578 155.914 46.4796 155.562C46.5013 155.209 46.6463 154.854 46.9146 154.496L47.9653 155.304C47.8617 155.457 47.8071 155.609 47.8015 155.76C47.796 155.911 47.8345 156.058 47.917 156.202C48.0011 156.346 48.1236 156.48 48.2847 156.604C48.4324 156.718 48.5734 156.795 48.7075 156.834C48.8431 156.875 48.9663 156.882 49.077 156.854C49.1877 156.826 49.279 156.767 49.3509 156.676C49.4153 156.59 49.445 156.496 49.4399 156.396C49.4359 156.294 49.397 156.179 49.3232 156.052C49.252 155.924 49.1485 155.778 49.0125 155.612L48.6234 155.136C48.2996 154.744 48.1019 154.36 48.0304 153.986C47.96 153.609 48.0579 153.249 48.3241 152.906C48.5386 152.624 48.8031 152.436 49.1178 152.342C49.4325 152.248 49.7698 152.245 50.1297 152.333C50.4895 152.422 50.8416 152.599 51.1859 152.864C51.5376 153.134 51.7968 153.428 51.9633 153.747C52.1325 154.065 52.2064 154.387 52.1849 154.711C52.1635 155.036 52.0458 155.34 51.8317 155.625L50.781 154.817Z" fill="#BE8D11"/>
<path d="M51.379 160.177L54.4483 155.342L57.8193 157.482L57.2168 158.431L55.0143 157.033L54.3849 158.024L56.4151 159.313L55.8111 160.265L53.781 158.976L53.15 159.97L55.3525 161.368L54.7501 162.317L51.379 160.177Z" fill="#BE8D11"/>
<path d="M58.0378 164.139L56.7139 163.461L61.0446 159.245L62.6846 160.085L61.7932 166.063L60.4692 165.384L61.2254 160.959L61.1856 160.938L58.0378 164.139ZM58.8887 162.042L61.6561 163.46L61.1767 164.396L58.4094 162.978L58.8887 162.042Z" fill="#BE8D11"/>
<path d="M63.3887 166.717L65.5317 161.407L66.8152 161.925L65.0929 166.193L67.3021 167.084L66.8815 168.127L63.3887 166.717Z" fill="#BE8D11"/>
<path d="M78.6814 168.55C78.5326 169.162 78.2888 169.652 77.9499 170.021C77.611 170.389 77.2136 170.635 76.7578 170.758C76.3038 170.882 75.8277 170.883 75.3295 170.762C74.8296 170.641 74.4065 170.42 74.0603 170.1C73.7141 169.78 73.4748 169.379 73.3423 168.898C73.212 168.416 73.221 167.869 73.3694 167.259C73.5181 166.647 73.761 166.156 74.0981 165.787C74.4371 165.419 74.8335 165.173 75.2875 165.049C75.7416 164.925 76.2185 164.924 76.7185 165.045C77.2167 165.167 77.639 165.386 77.9857 165.704C78.3341 166.023 78.5744 166.424 78.7064 166.907C78.8385 167.39 78.8302 167.937 78.6814 168.55ZM77.3065 168.216C77.3945 167.853 77.4173 167.535 77.3748 167.26C77.3341 166.985 77.2333 166.76 77.0726 166.585C76.9136 166.41 76.7001 166.29 76.432 166.225C76.1657 166.16 75.9209 166.169 75.6977 166.251C75.4744 166.333 75.2808 166.486 75.1168 166.711C74.9546 166.936 74.8295 167.23 74.7415 167.592C74.6535 167.955 74.6298 168.273 74.6706 168.548C74.7131 168.823 74.8147 169.048 74.9755 169.223C75.1362 169.398 75.3498 169.518 75.616 169.583C75.8841 169.648 76.1289 169.64 76.3504 169.557C76.5736 169.475 76.7663 169.322 76.9285 169.096C77.0925 168.871 77.2185 168.578 77.3065 168.216Z" fill="#BE8D11"/>
<path d="M80.4189 171.747L81.2398 166.08L85.1085 166.64L84.9474 167.752L82.4485 167.39L82.2801 168.553L84.5327 168.879L84.3712 169.994L82.1186 169.668L81.7887 171.945L80.4189 171.747Z" fill="#BE8D11"/>
<path d="M93.4168 168.758C93.3993 168.553 93.3172 168.393 93.1706 168.279C93.0258 168.162 92.8183 168.103 92.548 168.102C92.369 168.101 92.2198 168.123 92.1002 168.169C91.9807 168.215 91.8908 168.279 91.8307 168.361C91.7706 168.441 91.7394 168.533 91.7369 168.637C91.7327 168.723 91.7491 168.798 91.786 168.864C91.8248 168.929 91.8804 168.987 91.9528 169.038C92.0271 169.087 92.1163 169.13 92.2205 169.168C92.3247 169.206 92.442 169.239 92.5723 169.268L93.0638 169.383C93.3468 169.446 93.5961 169.529 93.8118 169.633C94.0293 169.737 94.2113 169.86 94.3578 170.002C94.5062 170.145 94.618 170.308 94.6934 170.493C94.7689 170.678 94.8069 170.886 94.8074 171.115C94.8036 171.476 94.7105 171.786 94.5283 172.044C94.346 172.303 94.0849 172.5 93.7448 172.636C93.4067 172.772 92.999 172.838 92.5218 172.836C92.0427 172.833 91.6255 172.759 91.2703 172.614C90.915 172.468 90.6394 172.248 90.4434 171.955C90.2475 171.661 90.1479 171.29 90.1448 170.843L91.4702 170.85C91.4804 171.035 91.5289 171.189 91.6158 171.312C91.7028 171.436 91.8225 171.53 91.975 171.594C92.1294 171.658 92.3081 171.691 92.5113 171.692C92.6977 171.693 92.8563 171.669 92.9871 171.619C93.1197 171.57 93.2217 171.5 93.293 171.411C93.3644 171.322 93.4013 171.22 93.4038 171.104C93.4025 170.996 93.3695 170.904 93.3047 170.827C93.2399 170.748 93.1396 170.681 93.0038 170.624C92.8699 170.565 92.6987 170.511 92.4902 170.462L91.8926 170.319C91.3974 170.202 91.0078 170.016 90.724 169.761C90.4403 169.504 90.3005 169.159 90.3048 168.724C90.3049 168.37 90.4017 168.06 90.5951 167.795C90.7886 167.529 91.0554 167.323 91.3955 167.176C91.7356 167.028 92.1228 166.956 92.5571 166.958C93.0008 166.961 93.3853 167.038 93.7107 167.191C94.038 167.342 94.2912 167.553 94.4706 167.825C94.6499 168.096 94.7404 168.41 94.7422 168.766L93.4168 168.758Z" fill="#BE8D11"/>
<path d="M97.1391 172.66L96.6566 166.954L100.635 166.617L100.73 167.738L98.1305 167.957L98.2295 169.128L100.626 168.925L100.721 170.048L98.3244 170.25L98.4236 171.423L101.023 171.204L101.118 172.324L97.1391 172.66Z" fill="#BE8D11"/>
<path d="M108.087 167.489L106.711 167.738C106.667 167.6 106.606 167.479 106.529 167.376C106.452 167.273 106.359 167.189 106.251 167.125C106.142 167.061 106.02 167.02 105.884 167.001C105.75 166.98 105.606 166.983 105.451 167.011C105.178 167.06 104.954 167.17 104.781 167.34C104.608 167.509 104.492 167.73 104.432 168.002C104.373 168.274 104.376 168.59 104.441 168.95C104.508 169.324 104.618 169.628 104.771 169.862C104.924 170.094 105.11 170.256 105.328 170.349C105.547 170.441 105.79 170.462 106.058 170.413C106.208 170.386 106.342 170.342 106.458 170.282C106.575 170.221 106.674 170.145 106.755 170.055C106.836 169.962 106.898 169.857 106.939 169.74C106.982 169.62 107.003 169.491 107.002 169.351L108.38 169.11C108.401 169.364 108.373 169.623 108.296 169.887C108.22 170.15 108.096 170.401 107.923 170.639C107.75 170.875 107.523 171.079 107.244 171.251C106.966 171.422 106.633 171.543 106.246 171.613C105.736 171.705 105.259 171.676 104.815 171.525C104.373 171.372 103.996 171.101 103.685 170.712C103.374 170.323 103.163 169.819 103.051 169.201C102.939 168.581 102.962 168.034 103.121 167.56C103.28 167.086 103.541 166.701 103.904 166.404C104.267 166.107 104.699 165.914 105.2 165.823C105.541 165.762 105.865 165.752 106.172 165.795C106.479 165.836 106.759 165.928 107.012 166.07C107.264 166.21 107.483 166.398 107.668 166.636C107.853 166.873 107.993 167.158 108.087 167.489Z" fill="#BE8D11"/>
<path d="M112.752 164.072L114.079 163.69L115.101 167.239C115.219 167.65 115.224 168.035 115.117 168.396C115.008 168.755 114.804 169.068 114.502 169.335C114.2 169.6 113.818 169.8 113.356 169.933C112.889 170.067 112.456 170.102 112.06 170.038C111.662 169.972 111.323 169.815 111.043 169.568C110.762 169.32 110.562 168.99 110.444 168.58L109.422 165.03L110.752 164.647L111.741 168.081C111.796 168.271 111.885 168.429 112.011 168.554C112.138 168.678 112.289 168.761 112.463 168.802C112.638 168.843 112.825 168.834 113.024 168.777C113.222 168.72 113.384 168.628 113.509 168.501C113.635 168.373 113.719 168.223 113.76 168.05C113.801 167.877 113.795 167.696 113.74 167.506L112.752 164.072Z" fill="#BE8D11"/>
<path d="M118.192 168.312L116.084 162.987L118.283 162.116C118.682 161.958 119.054 161.894 119.401 161.923C119.748 161.95 120.054 162.066 120.317 162.27C120.58 162.473 120.783 162.756 120.927 163.12C121.074 163.489 121.117 163.835 121.058 164.157C120.999 164.477 120.847 164.764 120.605 165.016C120.361 165.267 120.037 165.473 119.631 165.634L118.24 166.184L117.839 165.17L118.99 164.714C119.184 164.638 119.337 164.548 119.447 164.446C119.558 164.342 119.626 164.225 119.653 164.094C119.679 163.962 119.659 163.813 119.594 163.648C119.528 163.484 119.441 163.361 119.331 163.28C119.22 163.198 119.088 163.156 118.935 163.154C118.781 163.151 118.608 163.188 118.416 163.264L117.781 163.515L119.479 167.802L118.192 168.312ZM120.226 164.691L122.516 166.599L121.112 167.155L118.848 165.237L120.226 164.691Z" fill="#BE8D11"/>
<path d="M123.22 159.909L125.715 165.063L124.47 165.666L121.974 160.512L123.22 159.909Z" fill="#BE8D11"/>
<path d="M125.706 159.929L125.143 158.956L129.332 156.532L129.895 157.505L128.392 158.375L130.697 162.358L129.516 163.042L127.211 159.058L125.706 159.929Z" fill="#BE8D11"/>
<path d="M130.489 155.787L131.748 154.89L134.125 156.139L134.166 156.109L133.761 153.455L135.02 152.558L135.528 156.879L136.638 158.437L135.518 159.235L134.408 157.678L130.489 155.787Z" fill="#BE8D11"/>
<path d="M155.305 133.529C155.128 133.425 154.95 133.4 154.772 133.454C154.593 133.506 154.425 133.641 154.268 133.861C154.165 134.007 154.097 134.142 154.066 134.266C154.034 134.391 154.035 134.501 154.067 134.597C154.098 134.692 154.155 134.771 154.239 134.833C154.306 134.886 154.378 134.916 154.452 134.923C154.528 134.929 154.608 134.917 154.691 134.887C154.774 134.855 154.861 134.807 154.952 134.743C155.043 134.68 155.137 134.603 155.236 134.513L155.612 134.177C155.827 133.982 156.039 133.827 156.248 133.71C156.458 133.592 156.663 133.514 156.864 133.476C157.066 133.437 157.264 133.44 157.459 133.485C157.654 133.53 157.845 133.618 158.033 133.75C158.326 133.961 158.526 134.216 158.632 134.513C158.738 134.811 158.749 135.138 158.664 135.494C158.58 135.849 158.4 136.221 158.123 136.609C157.845 136.999 157.544 137.298 157.221 137.504C156.897 137.711 156.559 137.81 156.206 137.801C155.853 137.792 155.493 137.66 155.125 137.405L155.894 136.325C156.051 136.423 156.205 136.472 156.356 136.473C156.507 136.473 156.653 136.429 156.793 136.341C156.935 136.252 157.064 136.125 157.182 135.959C157.29 135.807 157.362 135.664 157.397 135.528C157.433 135.391 157.435 135.268 157.403 135.158C157.371 135.049 157.309 134.96 157.216 134.891C157.127 134.83 157.032 134.804 156.932 134.812C156.83 134.82 156.717 134.863 156.593 134.941C156.468 135.017 156.325 135.126 156.164 135.268L155.703 135.674C155.323 136.012 154.946 136.223 154.574 136.308C154.201 136.392 153.838 136.307 153.485 136.054C153.196 135.85 152.998 135.592 152.893 135.281C152.787 134.97 152.772 134.633 152.847 134.27C152.923 133.907 153.087 133.549 153.339 133.195C153.596 132.834 153.881 132.564 154.194 132.386C154.505 132.206 154.824 132.12 155.149 132.13C155.474 132.14 155.783 132.246 156.075 132.45L155.305 133.529Z" fill="#BE8D11"/>
<path d="M160.635 132.733L155.693 129.841L157.709 126.395L158.68 126.962L157.362 129.214L158.376 129.807L159.59 127.732L160.563 128.301L159.348 130.376L160.364 130.971L161.682 128.719L162.652 129.287L160.635 132.733Z" fill="#BE8D11"/>
<path d="M164.356 125.936L163.726 127.284L159.356 123.108L160.136 121.439L166.142 122.113L165.513 123.461L161.062 122.866L161.043 122.906L164.356 125.936ZM162.23 125.162L163.547 122.345L164.499 122.79L163.183 125.607L162.23 125.162Z" fill="#BE8D11"/>
<path d="M166.738 120.499L161.354 118.549L161.825 117.248L166.152 118.815L166.963 116.574L168.02 116.957L166.738 120.499Z" fill="#BE8D11"/>
<path d="M168.015 105.149C168.632 105.275 169.131 105.501 169.511 105.827C169.892 106.152 170.152 106.54 170.292 106.991C170.432 107.441 170.45 107.916 170.347 108.418C170.244 108.923 170.039 109.353 169.732 109.711C169.424 110.068 169.033 110.322 168.557 110.472C168.079 110.62 167.533 110.63 166.917 110.504C166.3 110.378 165.801 110.153 165.42 109.829C165.04 109.504 164.779 109.117 164.639 108.667C164.499 108.218 164.481 107.741 164.584 107.237C164.687 106.735 164.891 106.305 165.197 105.947C165.503 105.587 165.894 105.333 166.372 105.183C166.85 105.034 167.397 105.022 168.015 105.149ZM167.731 106.535C167.365 106.46 167.046 106.449 166.773 106.501C166.5 106.552 166.279 106.661 166.109 106.828C165.94 106.993 165.828 107.211 165.773 107.481C165.718 107.75 165.735 107.994 165.825 108.214C165.915 108.434 166.076 108.622 166.306 108.778C166.537 108.932 166.836 109.046 167.201 109.121C167.566 109.196 167.885 109.208 168.158 109.157C168.431 109.105 168.653 108.995 168.822 108.828C168.991 108.661 169.104 108.443 169.159 108.175C169.214 107.905 169.197 107.66 169.106 107.442C169.016 107.222 168.856 107.035 168.625 106.881C168.394 106.725 168.096 106.61 167.731 106.535Z" fill="#BE8D11"/>
<path d="M171.149 103.295L165.455 102.679L165.875 98.793L166.993 98.9138L166.721 101.424L167.889 101.55L168.134 99.2873L169.254 99.4083L169.009 101.671L171.297 101.918L171.149 103.295Z" fill="#BE8D11"/>
<path d="M167.693 90.4159C167.488 90.4408 167.331 90.5286 167.222 90.6793C167.111 90.8282 167.06 91.0377 167.068 91.3079C167.074 91.4867 167.102 91.6351 167.152 91.7529C167.202 91.8707 167.269 91.9582 167.353 92.0153C167.435 92.0725 167.528 92.1004 167.632 92.099C167.718 92.1001 167.793 92.0811 167.857 92.0418C167.921 92.0007 167.977 91.943 168.025 91.8688C168.072 91.7928 168.112 91.702 168.146 91.5965C168.18 91.491 168.209 91.3727 168.233 91.2414L168.329 90.746C168.382 90.4609 168.457 90.2087 168.552 89.9895C168.648 89.7683 168.765 89.582 168.902 89.4304C169.039 89.277 169.198 89.1593 169.38 89.0772C169.563 88.9952 169.768 88.9497 169.997 88.9408C170.359 88.9316 170.672 89.0134 170.936 89.1861C171.201 89.3589 171.407 89.6128 171.556 89.9476C171.704 90.2807 171.785 90.6857 171.8 91.1627C171.815 91.6415 171.756 92.0611 171.623 92.4214C171.491 92.7817 171.281 93.065 170.995 93.2715C170.708 93.478 170.341 93.5909 169.894 93.6102L169.854 92.2854C170.038 92.2686 170.19 92.2145 170.31 92.1232C170.431 92.0318 170.52 91.9088 170.579 91.754C170.637 91.5975 170.664 91.4176 170.657 91.2145C170.652 91.0282 170.622 90.8706 170.567 90.7417C170.513 90.611 170.44 90.5115 170.348 90.4435C170.257 90.3754 170.153 90.3422 170.038 90.3439C169.93 90.3491 169.838 90.3855 169.764 90.453C169.688 90.5206 169.624 90.6233 169.572 90.7611C169.518 90.897 169.47 91.07 169.428 91.2802L169.307 91.8826C169.209 92.3817 169.037 92.7777 168.792 93.0705C168.546 93.3635 168.206 93.5156 167.771 93.5271C167.417 93.5398 167.104 93.4543 166.832 93.2706C166.56 93.0869 166.344 92.8277 166.184 92.4932C166.025 92.1586 165.938 91.7743 165.925 91.3402C165.911 90.8967 165.975 90.5096 166.116 90.1789C166.255 89.8464 166.457 89.5857 166.721 89.3966C166.986 89.2076 167.296 89.1058 167.652 89.0911L167.693 90.4159Z" fill="#BE8D11"/>
<path d="M171.456 86.5528L165.771 87.2416L165.291 83.2776L166.407 83.1424L166.721 85.7323L167.886 85.5911L167.597 83.2038L168.716 83.0683L169.005 85.4555L170.174 85.3139L169.86 82.724L170.976 82.5888L171.456 86.5528Z" fill="#BE8D11"/>
<path d="M165.89 75.7997L166.188 77.1656C166.052 77.2144 165.934 77.2794 165.833 77.3606C165.732 77.4417 165.652 77.5374 165.592 77.6478C165.533 77.7582 165.496 77.8817 165.482 78.0183C165.465 78.1536 165.474 78.2976 165.507 78.4506C165.567 78.722 165.684 78.9415 165.86 79.1091C166.036 79.275 166.261 79.3832 166.535 79.434C166.809 79.4829 167.124 79.4683 167.481 79.3903C167.853 79.3092 168.153 79.1883 168.381 79.0278C168.607 78.8659 168.763 78.6744 168.848 78.4535C168.931 78.2312 168.944 77.9871 168.886 77.7212C168.853 77.5719 168.804 77.4404 168.739 77.3267C168.674 77.2112 168.595 77.115 168.502 77.038C168.406 76.9596 168.299 76.9019 168.18 76.8649C168.059 76.8265 167.929 76.8101 167.789 76.8159L167.499 75.4482C167.752 75.4178 168.011 75.4364 168.278 75.5041C168.544 75.57 168.799 75.685 169.043 75.8493C169.285 76.0139 169.497 76.2328 169.679 76.5061C169.86 76.7774 169.993 77.1053 170.077 77.4895C170.188 77.9958 170.176 78.4736 170.041 78.9228C169.904 79.3705 169.647 79.7568 169.27 80.0816C168.892 80.4064 168.396 80.6358 167.783 80.7699C167.167 80.9044 166.62 80.9009 166.14 80.7594C165.661 80.618 165.267 80.3712 164.957 80.0191C164.647 79.667 164.438 79.2423 164.329 78.7451C164.255 78.4064 164.234 78.0828 164.266 77.7744C164.296 77.4663 164.378 77.1834 164.51 76.9254C164.641 76.6679 164.821 76.4424 165.052 76.2489C165.283 76.0554 165.562 75.9057 165.89 75.7997Z" fill="#BE8D11"/>
<path d="M162.307 71.261L161.877 69.9483L165.387 68.7986C165.793 68.6658 166.178 68.6466 166.542 68.7411C166.905 68.8361 167.225 69.0294 167.503 69.3209C167.779 69.6129 167.992 69.9875 168.142 70.4446C168.293 70.9069 168.344 71.3375 168.294 71.7364C168.242 72.1358 168.098 72.4802 167.862 72.7696C167.623 73.0595 167.301 73.2709 166.895 73.4038L163.385 74.5534L162.954 73.238L166.35 72.1258C166.538 72.0643 166.692 71.9688 166.812 71.8391C166.932 71.7077 167.009 71.5539 167.044 71.3779C167.078 71.2018 167.063 71.0154 166.999 70.8188C166.935 70.6221 166.837 70.4639 166.705 70.3442C166.573 70.2226 166.42 70.1443 166.246 70.1092C166.072 70.0741 165.891 70.0873 165.703 70.1488L162.307 71.261Z" fill="#BE8D11"/>
<path d="M166.346 65.6703L161.101 67.9703L160.151 65.8039C159.979 65.4112 159.901 65.0413 159.918 64.6941C159.932 64.3459 160.037 64.0364 160.231 63.7658C160.424 63.4959 160.7 63.2823 161.059 63.1251C161.422 62.9656 161.766 62.9095 162.09 62.9567C162.412 63.0046 162.704 63.1454 162.965 63.3789C163.225 63.6132 163.442 63.9301 163.617 64.3296L164.218 65.6996L163.219 66.1376L162.722 65.0031C162.638 64.8119 162.543 64.6632 162.438 64.5568C162.33 64.4496 162.21 64.3851 162.078 64.3634C161.945 64.3425 161.797 64.3676 161.635 64.4388C161.473 64.5099 161.353 64.6019 161.277 64.7149C161.198 64.8287 161.161 64.962 161.165 65.115C161.167 65.2687 161.21 65.4403 161.293 65.6298L161.567 66.2546L165.79 64.4027L166.346 65.6703ZM162.654 63.7689L164.478 61.4117L165.085 62.7946L163.249 65.1261L162.654 63.7689Z" fill="#BE8D11"/>
<path d="M157.768 60.949L162.828 58.2688L163.476 59.4919L158.416 62.1721L157.768 60.949Z" fill="#BE8D11"/>
<path d="M157.697 58.4636L156.745 59.0615L154.171 54.9627L155.123 54.3648L156.047 55.8353L159.944 53.3873L160.67 54.5428L156.772 56.9908L157.697 58.4636Z" fill="#BE8D11"/>
<path d="M153.384 53.8369L152.442 52.6109L153.604 50.1906L153.573 50.1507L150.935 50.6511L149.993 49.4251L154.293 48.7613L155.81 47.5958L156.648 48.6865L155.132 49.8521L153.384 53.8369Z" fill="#BE8D11"/>
<path d="M134.025 31.1199C133.915 31.2937 133.883 31.4706 133.931 31.6506C133.975 31.8309 134.105 32.0035 134.319 32.1685C134.46 32.2778 134.593 32.3503 134.716 32.3862C134.839 32.4222 134.949 32.4258 135.046 32.3973C135.142 32.3702 135.223 32.3159 135.288 32.2343C135.344 32.1687 135.376 32.0987 135.387 32.0242C135.395 31.9486 135.386 31.8687 135.36 31.7845C135.33 31.7006 135.285 31.612 135.225 31.5188C135.166 31.4255 135.092 31.328 135.006 31.2262L134.685 30.8372C134.498 30.6155 134.35 30.398 134.241 30.1848C134.131 29.9705 134.061 29.7623 134.031 29.5601C133.999 29.3569 134.009 29.1589 134.061 28.966C134.114 28.7732 134.209 28.5854 134.347 28.4026C134.57 28.1173 134.831 27.9273 135.133 27.8324C135.434 27.7375 135.761 27.739 136.114 27.8368C136.466 27.9335 136.83 28.1275 137.208 28.4188C137.588 28.7113 137.875 29.023 138.069 29.3541C138.264 29.6851 138.35 30.0268 138.328 30.3793C138.305 30.7317 138.16 31.0868 137.891 31.4446L136.842 30.6355C136.945 30.4825 137 30.3306 137.006 30.1796C137.012 30.0287 136.973 29.8815 136.891 29.738C136.807 29.5933 136.685 29.459 136.524 29.3349C136.376 29.2212 136.235 29.1444 136.101 29.1046C135.965 29.0637 135.842 29.057 135.732 29.0846C135.621 29.1123 135.529 29.1713 135.457 29.2617C135.393 29.3485 135.363 29.4421 135.368 29.5424C135.372 29.6443 135.411 29.7589 135.485 29.8862C135.556 30.0139 135.659 30.1607 135.795 30.3265L136.183 30.8025C136.507 31.1953 136.704 31.5791 136.775 31.954C136.845 32.3304 136.747 32.6901 136.48 33.0329C136.266 33.3146 136.001 33.5024 135.686 33.5964C135.371 33.6903 135.034 33.6928 134.674 33.6038C134.314 33.5149 133.962 33.3378 133.618 33.0727C133.267 32.8018 133.008 32.5071 132.842 32.1883C132.673 31.8699 132.6 31.5485 132.621 31.224C132.643 30.8996 132.761 30.5952 132.976 30.3109L134.025 31.1199Z" fill="#BE8D11"/>
<path d="M133.429 25.7601L130.355 30.5915L126.986 28.4479L127.589 27.4995L129.791 28.9001L130.421 27.9093L128.392 26.6183L128.997 25.6676L131.026 26.9586L131.658 25.9654L129.457 24.5648L130.06 23.6165L133.429 25.7601Z" fill="#BE8D11"/>
<path d="M126.775 21.7907L128.098 22.4704L123.763 26.6816L122.124 25.8396L123.022 19.8629L124.345 20.5426L123.584 24.9676L123.624 24.988L126.775 21.7907ZM125.922 23.8862L123.156 22.4655L123.637 21.5303L126.402 22.951L125.922 23.8862Z" fill="#BE8D11"/>
<path d="M121.43 19.2065L119.281 24.5148L117.998 23.9954L119.725 19.7291L117.517 18.8353L117.939 17.7933L121.43 19.2065Z" fill="#BE8D11"/>
<path d="M106.14 17.3578C106.289 16.7457 106.534 16.2556 106.873 15.8875C107.212 15.5194 107.61 15.2739 108.066 15.1511C108.52 15.0278 108.996 15.027 109.494 15.1486C109.994 15.2705 110.417 15.4918 110.763 15.8122C111.108 16.1326 111.347 16.5335 111.479 17.0147C111.609 17.4973 111.599 18.0437 111.45 18.654C111.301 19.2661 111.058 19.7565 110.72 20.125C110.381 20.4932 109.984 20.7388 109.53 20.8621C109.076 20.9853 108.599 20.986 108.099 20.864C107.601 20.7424 107.179 20.5223 106.833 20.2037C106.484 19.8846 106.245 19.4836 106.113 19.0005C105.981 18.5175 105.99 17.9699 106.14 17.3578ZM107.514 17.6933C107.426 18.0555 107.403 18.3742 107.445 18.6493C107.485 18.9239 107.586 19.149 107.747 19.3244C107.905 19.4994 108.119 19.6196 108.387 19.685C108.653 19.75 108.898 19.7416 109.121 19.6599C109.344 19.5782 109.538 19.425 109.702 19.2002C109.865 18.9751 109.99 18.6814 110.079 18.3192C110.167 17.957 110.191 17.6386 110.151 17.3639C110.108 17.0888 110.007 16.8635 109.846 16.6881C109.686 16.5127 109.472 16.3925 109.206 16.3275C108.938 16.2621 108.693 16.2704 108.472 16.3526C108.249 16.4343 108.056 16.5878 107.893 16.8129C107.729 17.0377 107.603 17.3311 107.514 17.6933Z" fill="#BE8D11"/>
<path d="M104.402 14.1585L103.575 19.8251L99.707 19.2606L99.8693 18.1483L102.368 18.5129L102.537 17.3508L100.285 17.0222L100.448 15.9071L102.7 16.2358L103.032 13.9586L104.402 14.1585Z" fill="#BE8D11"/>
<path d="M91.4039 17.1335C91.4211 17.3387 91.503 17.4986 91.6496 17.6133C91.7942 17.7298 92.0017 17.789 92.272 17.7908C92.4509 17.792 92.6002 17.7696 92.7198 17.7238C92.8394 17.678 92.9293 17.6143 92.9895 17.5327C93.0497 17.4529 93.081 17.3608 93.0836 17.2565C93.0879 17.1707 93.0716 17.0951 93.0348 17.0296C92.996 16.9641 92.9405 16.906 92.8681 16.8552C92.7939 16.8062 92.7047 16.7627 92.6006 16.7248C92.4964 16.6868 92.3792 16.6534 92.2489 16.6246L91.7575 16.5095C91.4746 16.4461 91.2253 16.3624 91.0098 16.2585C90.7923 16.1545 90.6105 16.0312 90.4641 15.8886C90.3159 15.7459 90.2042 15.5821 90.129 15.397C90.0538 15.212 90.016 15.0048 90.0157 14.7755C90.0199 14.4139 90.1133 14.1041 90.2959 13.8462C90.4784 13.5883 90.7397 13.3915 91.0799 13.2558C91.4182 13.12 91.826 13.0538 92.3032 13.0569C92.7823 13.0601 93.1994 13.1346 93.5544 13.2805C93.9095 13.4264 94.1849 13.6463 94.3806 13.9403C94.5762 14.2342 94.6754 14.6049 94.678 15.0523L93.3527 15.0436C93.3427 14.859 93.2943 14.7049 93.2075 14.5813C93.1207 14.4576 93.0011 14.3636 92.8487 14.2993C92.6944 14.2349 92.5156 14.202 92.3124 14.2006C92.126 14.1994 91.9674 14.2235 91.8366 14.273C91.7039 14.3225 91.6018 14.3917 91.5304 14.4807C91.459 14.5697 91.422 14.672 91.4193 14.7876C91.4205 14.8957 91.4534 14.9882 91.5182 15.065C91.5829 15.1438 91.6831 15.2115 91.8188 15.2684C91.9527 15.327 92.1238 15.3813 92.3323 15.4311L92.9297 15.5749C93.4248 15.6919 93.8141 15.8781 94.0977 16.1335C94.3812 16.3907 94.5206 16.7365 94.5158 17.1708C94.5154 17.525 94.4183 17.8348 94.2245 18.1001C94.0307 18.3654 93.7637 18.5715 93.4235 18.7183C93.0832 18.8652 92.6959 18.9372 92.2616 18.9344C91.818 18.9315 91.4335 18.8534 91.1083 18.7003C90.7812 18.549 90.5281 18.3376 90.3491 18.0661C90.1701 17.7946 90.0799 17.4808 90.0785 17.1248L91.4039 17.1335Z" fill="#BE8D11"/>
<path d="M87.6818 13.2279L88.1583 18.9346L84.1791 19.2668L84.0856 18.1466L86.6854 17.9296L86.5877 16.7593L84.1913 16.9593L84.0976 15.8364L86.494 15.6363L86.396 14.4632L83.7962 14.6802L83.7027 13.5601L87.6818 13.2279Z" fill="#BE8D11"/>
<path d="M76.7312 18.3868L78.1072 18.1395C78.151 18.2775 78.2115 18.3983 78.2888 18.5018C78.3661 18.6053 78.4588 18.689 78.5669 18.753C78.675 18.8169 78.797 18.8584 78.9331 18.8775C79.0676 18.8988 79.2119 18.8956 79.366 18.8679C79.6394 18.8188 79.8631 18.7094 80.0372 18.5399C80.2094 18.3707 80.326 18.1499 80.3869 17.8776C80.446 17.6056 80.4433 17.2898 80.3786 16.9302C80.3114 16.5559 80.2018 16.2517 80.0499 16.0177C79.8965 15.7858 79.711 15.6231 79.4934 15.5296C79.2744 15.4383 79.0309 15.4167 78.763 15.4648C78.6126 15.4918 78.4793 15.5357 78.3633 15.5963C78.2455 15.6572 78.1464 15.7328 78.066 15.823C77.9841 15.9154 77.9224 16.0202 77.881 16.1375C77.8381 16.257 77.8169 16.3867 77.8174 16.5268L76.4399 16.7658C76.4189 16.512 76.4472 16.2531 76.5248 15.9891C76.6005 15.7255 76.725 15.4749 76.8982 15.2374C77.0718 15.0016 77.2985 14.798 77.5783 14.6265C77.8562 14.4554 78.1888 14.335 78.5759 14.2654C79.086 14.1738 79.5629 14.2036 80.0068 14.3549C80.4492 14.5084 80.8256 14.7798 81.1361 15.1691C81.4466 15.5584 81.6574 16.0622 81.7685 16.6805C81.8799 17.3006 81.856 17.8475 81.6968 18.3212C81.5376 18.7949 81.2763 19.18 80.9129 19.4763C80.5494 19.7727 80.1173 19.9659 79.6164 20.0559C79.2751 20.1172 78.951 20.1262 78.644 20.0829C78.3373 20.0414 78.0575 19.9496 77.8047 19.8076C77.5522 19.6673 77.3336 19.4784 77.1488 19.2407C76.9641 19.0031 76.8249 18.7184 76.7312 18.3868Z" fill="#BE8D11"/>
<path d="M72.066 21.8L70.7381 22.1807L69.7201 18.63C69.6025 18.2197 69.5977 17.8342 69.7056 17.4735C69.8141 17.1147 70.0192 16.8019 70.3209 16.535C70.623 16.27 71.0053 16.0712 71.4676 15.9386C71.9353 15.8046 72.3675 15.7698 72.7642 15.8345C73.1614 15.901 73.5002 16.0579 73.7805 16.3053C74.0614 16.5544 74.2606 16.8842 74.3783 17.2945L75.3963 20.8452L74.0658 21.2267L73.0809 17.7915C73.0265 17.6016 72.9367 17.4441 72.8116 17.319C72.6848 17.1944 72.534 17.1116 72.3593 17.0705C72.1846 17.0294 71.9979 17.0374 71.799 17.0944C71.6001 17.1515 71.4383 17.2434 71.3137 17.3703C71.1873 17.4977 71.1034 17.6478 71.0618 17.8207C71.0202 17.9935 71.0266 18.1749 71.0811 18.3649L72.066 21.8Z" fill="#BE8D11"/>
<path d="M66.6239 17.5545L68.7269 22.881L66.5266 23.7497C66.1278 23.9072 65.7552 23.9711 65.4088 23.9415C65.0614 23.9143 64.7561 23.7984 64.4929 23.5937C64.2303 23.3907 64.0272 23.1071 63.8834 22.743C63.7376 22.3737 63.6944 22.028 63.7536 21.706C63.8136 21.3857 63.9651 21.0994 64.2082 20.8471C64.452 20.5966 64.7767 20.3912 65.1825 20.231L66.5739 19.6816L66.9744 20.696L65.8222 21.1509C65.628 21.2275 65.4758 21.3167 65.3656 21.4183C65.2544 21.5223 65.1855 21.6397 65.1589 21.7705C65.1331 21.9029 65.1526 22.0515 65.2177 22.2162C65.2827 22.3809 65.3703 22.5037 65.4803 22.5845C65.5911 22.6671 65.7229 22.7092 65.8759 22.7109C66.0296 22.7144 66.2027 22.6781 66.3952 22.6021L67.0298 22.3516L65.3365 18.0628L66.6239 17.5545ZM64.5863 21.1728L62.2988 19.2621L63.7032 18.7076L65.9647 20.6286L64.5863 21.1728Z" fill="#BE8D11"/>
<path d="M61.5897 25.9514L59.1 20.7943L60.3464 20.1926L62.8362 25.3496L61.5897 25.9514Z" fill="#BE8D11"/>
<path d="M59.102 25.9287L59.664 26.9022L55.4721 29.322L54.9101 28.3485L56.414 27.4804L54.113 23.4943L55.2947 22.8121L57.5957 26.7982L59.102 25.9287Z" fill="#BE8D11"/>
<path d="M54.3178 30.066L53.0575 30.962L50.6822 29.7105L50.6412 29.7397L51.0429 32.3943L49.7827 33.2903L49.2796 28.9682L48.1714 27.4094L49.2926 26.6123L50.4009 28.1711L54.3178 30.066Z" fill="#BE8D11"/>
<path d="M30.6412 49.7538C30.8132 49.867 30.9895 49.9015 31.1702 49.8572C31.3512 49.8155 31.5259 49.6889 31.6944 49.4775C31.8059 49.3376 31.8806 49.2064 31.9185 49.084C31.9564 48.9617 31.9618 48.8516 31.9349 48.7539C31.9094 48.6573 31.8564 48.5757 31.7759 48.5092C31.7111 48.4529 31.6416 48.4189 31.5674 48.4074C31.4919 48.3974 31.4119 48.4051 31.3272 48.4306C31.2429 48.4587 31.1536 48.502 31.0594 48.5604C30.9651 48.6188 30.8664 48.6903 30.7633 48.775L30.3691 49.0902C30.1444 49.2734 29.9246 49.4177 29.7097 49.5229C29.4936 49.6296 29.2843 49.6964 29.0817 49.7233C28.878 49.7517 28.6801 49.7382 28.4881 49.683C28.2962 49.6278 28.1099 49.5294 27.9295 49.388C27.6478 49.1612 27.462 48.8964 27.372 48.5935C27.282 48.2906 27.2888 47.9635 27.3923 47.6122C27.4947 47.2623 27.6945 46.9008 27.9919 46.5276C28.2905 46.1529 28.6068 45.871 28.9409 45.682C29.2751 45.493 29.6181 45.4124 29.9702 45.4402C30.3222 45.468 30.6749 45.6192 31.0283 45.8936L30.2024 46.9302C30.0511 46.8239 29.9 46.7667 29.7492 46.7586C29.5984 46.7504 29.4506 46.7864 29.3057 46.8664C29.1597 46.948 29.0234 47.0682 28.8968 47.2271C28.7807 47.3729 28.7016 47.5125 28.6597 47.6459C28.6165 47.7808 28.6079 47.9038 28.6337 48.015C28.6596 48.1261 28.7171 48.2185 28.8064 48.2919C28.8921 48.3578 28.9852 48.3891 29.0856 48.3857C29.1875 48.3835 29.3027 48.3466 29.4312 48.275C29.5601 48.206 29.7085 48.105 29.8765 47.9719L30.3587 47.591C30.7567 47.2741 31.1436 47.083 31.5196 47.018C31.8971 46.954 32.2551 47.0581 32.5936 47.3303C32.8718 47.5495 33.0553 47.8173 33.1442 48.1336C33.233 48.4498 33.23 48.7871 33.1352 49.1454C33.0405 49.5037 32.8577 49.8527 32.5871 50.1924C32.3106 50.5394 32.0117 50.7934 31.6903 50.9544C31.3692 51.1181 31.0466 51.1864 30.7226 51.1594C30.3985 51.1324 30.0961 51.0094 29.8153 50.7904L30.6412 49.7538Z" fill="#BE8D11"/>
<path d="M25.2738 50.2641L30.0548 53.4162L27.857 56.7499L26.9185 56.1312L28.3545 53.9531L27.374 53.3066L26.0504 55.3143L25.1096 54.6941L26.4332 52.6864L25.4504 52.0384L24.0144 54.2165L23.0759 53.5978L25.2738 50.2641Z" fill="#BE8D11"/>
<path d="M21.1969 56.853L21.8979 55.541L26.0384 59.9437L25.1701 61.569L19.2087 60.5747L19.9096 59.2626L24.3218 60.0949L24.3429 60.0555L21.1969 56.853ZM23.2783 57.7399L21.8131 60.4825L20.8858 59.987L22.351 57.2445L23.2783 57.7399Z" fill="#BE8D11"/>
<path d="M18.5274 62.1549L23.8002 64.3891L23.2602 65.6635L19.0224 63.8679L18.0929 66.0615L17.0579 65.6229L18.5274 62.1549Z" fill="#BE8D11"/>
<path d="M16.4292 77.4143C15.8196 77.255 15.3335 77.0027 14.9709 76.6575C14.6083 76.3123 14.3693 75.9108 14.2539 75.4529C14.138 74.9968 14.1449 74.5208 14.2745 74.0248C14.4045 73.527 14.6326 73.1078 14.9585 72.7671C15.2845 72.4265 15.6892 72.1941 16.1725 72.0699C16.6571 71.948 17.2033 71.9664 17.8111 72.1252C18.4207 72.2845 18.9071 72.5359 19.2701 72.8793C19.6327 73.2245 19.872 73.6251 19.9878 74.0812C20.1037 74.5373 20.0967 75.0142 19.9666 75.512C19.837 76.008 19.6101 76.4266 19.2859 76.7677C18.9613 77.1106 18.5564 77.3439 18.0713 77.4676C17.5862 77.5913 17.0388 77.5735 16.4292 77.4143ZM16.7869 76.0453C17.1476 76.1396 17.4658 76.1678 17.7416 76.1301C18.0169 76.0941 18.2435 75.9972 18.4215 75.8395C18.5991 75.6836 18.7227 75.4722 18.7925 75.2052C18.8617 74.9401 18.8573 74.6952 18.7792 74.4706C18.7011 74.246 18.551 74.0497 18.329 73.8819C18.1065 73.7159 17.8149 73.5857 17.4542 73.4915C17.0935 73.3972 16.7755 73.3681 16.5002 73.404C16.2244 73.4418 15.9975 73.5396 15.8195 73.6973C15.6415 73.855 15.5179 74.0664 15.4486 74.3316C15.3789 74.5985 15.3833 74.8434 15.4618 75.0662C15.5399 75.2908 15.6903 75.4862 15.9128 75.6522C16.1348 75.82 16.4262 75.9511 16.7869 76.0453Z" fill="#BE8D11"/>
<path d="M13.204 79.0989L18.8565 80.0173L18.2296 83.8758L17.12 83.6955L17.525 81.2033L16.3658 81.0149L16.0007 83.2616L14.8885 83.0808L15.2535 80.8342L12.982 80.4651L13.204 79.0989Z" fill="#BE8D11"/>
<path d="M15.9675 92.1441C16.173 92.1301 16.3342 92.0508 16.4512 91.9062C16.5701 91.7634 16.6326 91.5569 16.6388 91.2867C16.6428 91.1078 16.6229 90.9582 16.5791 90.8378C16.5352 90.7175 16.4729 90.6266 16.3923 90.5651C16.3135 90.5036 16.222 90.4708 16.1176 90.4665C16.032 90.4609 15.9561 90.4759 15.8901 90.5117C15.8239 90.5493 15.7649 90.6039 15.7129 90.6755C15.6628 90.7489 15.6179 90.8374 15.5782 90.9409C15.5386 91.0444 15.5033 91.1611 15.4723 91.2909L15.3493 91.7804C15.2814 92.0622 15.1937 92.3101 15.0863 92.524C14.9788 92.7397 14.8526 92.9195 14.7076 93.0635C14.5625 93.2094 14.3969 93.3184 14.2107 93.3906C14.0244 93.4629 13.8167 93.4973 13.5874 93.4939C13.2259 93.4838 12.9177 93.3854 12.6627 93.1988C12.4078 93.0121 12.2152 92.7476 12.0851 92.4053C11.9548 92.0648 11.8952 91.656 11.906 91.1789C11.9169 90.7 11.9982 90.2841 12.1498 89.9315C12.3014 89.5788 12.5258 89.307 12.8228 89.1161C13.1199 88.9252 13.4922 88.8321 13.9396 88.8367L13.9094 90.1617C13.7247 90.1687 13.5698 90.2146 13.4448 90.2994C13.3198 90.3842 13.2239 90.5023 13.157 90.6536C13.0901 90.8069 13.0544 90.9851 13.0498 91.1882C13.0455 91.3746 13.0671 91.5335 13.1144 91.6651C13.1617 91.7986 13.2293 91.9018 13.3171 91.9746C13.405 92.0475 13.5066 92.0862 13.6221 92.0907C13.7303 92.0913 13.8233 92.0598 13.9012 91.9963C13.9809 91.9329 14.0503 91.8338 14.1093 91.699C14.1702 91.5661 14.2272 91.3959 14.2804 91.1883L14.4338 90.5932C14.5588 90.1001 14.7512 89.7138 15.0112 89.4344C15.273 89.1551 15.621 89.0213 16.0552 89.0331C16.4093 89.0393 16.7175 89.1414 16.9796 89.3394C17.2417 89.5375 17.4435 89.8078 17.5848 90.1503C17.7262 90.4929 17.7919 90.8813 17.782 91.3155C17.7719 91.7591 17.6877 92.1422 17.5293 92.4649C17.3728 92.7895 17.1573 93.0391 16.883 93.2138C16.6086 93.3884 16.2934 93.4735 15.9374 93.4691L15.9675 92.1441Z" fill="#BE8D11"/>
<path d="M12.0002 95.8001L17.7139 95.416L17.9817 99.4L16.8602 99.4753L16.6852 96.8724L15.5135 96.9511L15.6748 99.3505L14.5504 99.426L14.3891 97.0267L13.2146 97.1057L13.3896 99.7087L12.268 99.784L12.0002 95.8001Z" fill="#BE8D11"/>
<path d="M16.9819 106.836L16.7569 105.456C16.8956 105.414 17.0173 105.356 17.1221 105.28C17.2269 105.204 17.3121 105.113 17.3777 105.006C17.4434 104.899 17.4869 104.778 17.5082 104.642C17.5317 104.508 17.5308 104.363 17.5056 104.209C17.4609 103.935 17.3552 103.709 17.1885 103.532C17.0221 103.357 16.8032 103.237 16.5319 103.172C16.2609 103.109 15.9451 103.106 15.5845 103.165C15.2092 103.226 14.9033 103.331 14.6668 103.479C14.4324 103.629 14.2667 103.811 14.1698 104.027C14.0749 104.245 14.0494 104.488 14.0932 104.757C14.1178 104.908 14.1594 105.041 14.2182 105.158C14.2772 105.277 14.3512 105.378 14.4401 105.459C14.5311 105.543 14.6349 105.606 14.7515 105.649C14.8703 105.694 14.9997 105.718 15.1397 105.719L15.3564 107.101C15.1023 107.117 14.8439 107.085 14.5813 107.003C14.3189 106.923 14.0704 106.795 13.8356 106.618C13.6027 106.44 13.4028 106.21 13.2359 105.928C13.0692 105.647 12.9542 105.313 12.8909 104.924C12.8075 104.413 12.8451 103.936 13.0035 103.495C13.1642 103.055 13.4416 102.683 13.8359 102.379C14.2301 102.075 14.7373 101.872 15.3573 101.771C15.9792 101.67 16.5256 101.703 16.9967 101.869C17.4677 102.036 17.8485 102.304 18.1389 102.672C18.4294 103.04 18.6156 103.475 18.6975 103.978C18.7533 104.32 18.757 104.644 18.7088 104.95C18.6623 105.256 18.566 105.535 18.4199 105.785C18.2756 106.035 18.0831 106.251 17.8425 106.432C17.6019 106.613 17.3151 106.747 16.9819 106.836Z" fill="#BE8D11"/>
<path d="M20.3203 111.559L20.6795 112.893L17.1127 113.853C16.7005 113.964 16.315 113.963 15.9562 113.849C15.5991 113.735 15.2897 113.525 15.0277 113.219C14.7676 112.912 14.575 112.527 14.45 112.063C14.3235 111.593 14.2958 111.16 14.3668 110.764C14.4397 110.368 14.6021 110.032 14.8539 109.756C15.1076 109.479 15.4405 109.285 15.8527 109.174L19.4195 108.214L19.7794 109.55L16.3287 110.479C16.1379 110.531 15.979 110.618 15.8519 110.741C15.7253 110.866 15.64 111.015 15.5961 111.189C15.5522 111.363 15.5572 111.55 15.611 111.75C15.6648 111.95 15.7541 112.113 15.8789 112.24C16.0043 112.368 16.153 112.454 16.3252 112.499C16.4974 112.543 16.6789 112.54 16.8697 112.488L20.3203 111.559Z" fill="#BE8D11"/>
<path d="M15.9892 116.926L21.3491 114.909L22.1821 117.123C22.333 117.525 22.3909 117.898 22.3557 118.244C22.323 118.591 22.2021 118.894 21.9931 119.154C21.7859 119.413 21.4991 119.612 21.1327 119.75C20.7611 119.89 20.4148 119.927 20.0938 119.863C19.7745 119.798 19.4907 119.642 19.2423 119.395C18.9958 119.147 18.7957 118.819 18.6421 118.41L18.1153 117.01L19.1359 116.626L19.5721 117.786C19.6457 117.981 19.7323 118.135 19.8322 118.246C19.9344 118.359 20.0506 118.43 20.1809 118.459C20.313 118.487 20.4619 118.47 20.6276 118.407C20.7934 118.345 20.9175 118.259 21.0001 118.151C21.0844 118.041 21.1287 117.91 21.1329 117.757C21.1388 117.604 21.1053 117.43 21.0325 117.236L20.7922 116.598L16.4766 118.221L15.9892 116.926ZM19.5741 119.022L17.6267 121.278L17.095 119.865L19.0523 117.635L19.5741 119.022Z" fill="#BE8D11"/>
<path d="M24.3022 122.099L19.1055 124.505L18.524 123.249L23.7207 120.843L24.3022 122.099Z" fill="#BE8D11"/>
<path d="M24.238 124.585L25.2204 124.038L27.5722 128.269L26.5897 128.815L25.746 127.297L21.7233 129.534L21.0603 128.341L25.083 126.105L24.238 124.585Z" fill="#BE8D11"/>
<path d="M28.2998 129.435L29.1753 130.709L27.8856 133.064L27.9141 133.106L30.5748 132.747L31.4503 134.021L27.1207 134.454L25.5442 135.537L24.7653 134.403L26.3418 133.32L28.2998 129.435Z" fill="#BE8D11"/>
<path d="M146.245 35.6862C146.289 35.5944 146.42 35.5944 146.465 35.6862L147.45 37.7022C147.468 37.7388 147.503 37.7641 147.543 37.7698L149.765 38.0836C149.866 38.0979 149.907 38.2224 149.833 38.2934L148.22 39.8531C148.191 39.8814 148.178 39.9225 148.185 39.9626L148.573 42.1725C148.59 42.2731 148.485 42.3501 148.394 42.3021L146.412 41.2501C146.376 41.231 146.333 41.231 146.297 41.2501L144.316 42.3021C144.225 42.3501 144.119 42.2731 144.137 42.1725L144.525 39.9626C144.532 39.9225 144.519 39.8814 144.49 39.8531L142.877 38.2934C142.803 38.2224 142.844 38.0979 142.945 38.0836L145.167 37.7698C145.207 37.7641 145.242 37.7388 145.26 37.7022L146.245 35.6862Z" fill="#BE8D11"/>
<path d="M39.1958 33.0099C39.2407 32.9181 39.3715 32.9181 39.4164 33.0099L40.4014 35.0259C40.4192 35.0625 40.4541 35.0879 40.4945 35.0936L42.7161 35.4073C42.8173 35.4216 42.8578 35.5461 42.7843 35.6171L41.1714 37.1768C41.1421 37.2052 41.1288 37.2462 41.1358 37.2863L41.5239 39.4962C41.5416 39.5969 41.4357 39.6738 41.3455 39.6259L39.3637 38.5739C39.3277 38.5548 39.2845 38.5548 39.2485 38.5739L37.2668 39.6259C37.1765 39.6738 37.0706 39.5969 37.0883 39.4962L37.4764 37.2863C37.4834 37.2462 37.4701 37.2052 37.4408 37.1768L35.8279 35.6171C35.7544 35.5461 35.7949 35.4216 35.8961 35.4073L38.1177 35.0936C38.1581 35.0879 38.193 35.0625 38.2109 35.0259L39.1958 33.0099Z" fill="#BE8D11"/>
<path d="M36.8501 141.395C36.895 141.303 37.0258 141.303 37.0707 141.395L38.0557 143.411C38.0735 143.447 38.1084 143.473 38.1488 143.478L40.3704 143.792C40.4716 143.806 40.5121 143.931 40.4386 144.002L38.8257 145.562C38.7964 145.59 38.7831 145.631 38.7901 145.671L39.1782 147.881C39.1959 147.982 39.09 148.059 38.9998 148.011L37.018 146.959C36.982 146.94 36.9388 146.94 36.9028 146.959L34.9211 148.011C34.8308 148.059 34.7249 147.982 34.7426 147.881L35.1307 145.671C35.1377 145.631 35.1244 145.59 35.0951 145.562L33.4822 144.002C33.4087 143.931 33.4492 143.806 33.5504 143.792L35.772 143.478C35.8124 143.473 35.8473 143.447 35.8652 143.411L36.8501 141.395Z" fill="#BE8D11"/>
<path d="M147.252 143.74C147.297 143.648 147.428 143.648 147.473 143.74L148.458 145.756C148.476 145.792 148.511 145.818 148.551 145.824L150.773 146.137C150.874 146.152 150.914 146.276 150.841 146.347L149.228 147.907C149.199 147.935 149.185 147.976 149.192 148.016L149.581 150.226C149.598 150.327 149.492 150.404 149.402 150.356L147.42 149.304C147.384 149.285 147.341 149.285 147.305 149.304L145.323 150.356C145.233 150.404 145.127 150.327 145.145 150.226L145.533 148.016C145.54 147.976 145.527 147.935 145.497 147.907L143.885 146.347C143.811 146.276 143.852 146.152 143.953 146.137L146.174 145.824C146.215 145.818 146.25 145.792 146.267 145.756L147.252 143.74Z" fill="#BE8D11"/>
<defs>
<filter id="filter0_i_1327_5221" x="47.5" y="53" width="90.9922" height="88.9858" filterUnits="userSpaceOnUse" color-interpolation-filters="sRGB">
<feFlood flood-opacity="0" result="BackgroundImageFix"/>
<feBlend mode="normal" in="SourceGraphic" in2="BackgroundImageFix" result="shape"/>
<feColorMatrix in="SourceAlpha" type="matrix" values="0 0 0 0 0 0 0 0 0 0 0 0 0 0 0 0 0 0 127 0" result="hardAlpha"/>
<feOffset dy="1"/>
<feComposite in2="hardAlpha" operator="arithmetic" k2="-1" k3="1"/>
<feColorMatrix type="matrix" values="0 0 0 0 0 0 0 0 0 0 0 0 0 0 0 0 0 0 0.25 0"/>
<feBlend mode="normal" in2="shape" result="effect1_innerShadow_1327_5221"/>
</filter>
<linearGradient id="paint0_linear_1327_5221" x1="20.36" y1="2.103" x2="154.655" y2="194.569" gradientUnits="userSpaceOnUse">
<stop stop-color="#FFD979"/>
<stop offset="1" stop-color="#ECAF17"/>
</linearGradient>
</defs>
</svg>
