<svg width="48" height="48" viewBox="0 0 48 48" fill="none" xmlns="http://www.w3.org/2000/svg">
<g filter="url(#filter0_di_0_3)">
<mask id="mask0_0_3" style="mask-type:luminance" maskUnits="userSpaceOnUse" x="9" y="9" width="30" height="30">
<path d="M38.5 24C38.5 15.9919 32.0081 9.5 24 9.5C15.9919 9.5 9.5 15.9919 9.5 24C9.5 32.0081 15.9919 38.5 24 38.5C32.0081 38.5 38.5 32.0081 38.5 24Z" fill="white"/>
</mask>
<g mask="url(#mask0_0_3)">
<path d="M38.5 24C38.5 15.9919 32.0081 9.5 24 9.5C15.9919 9.5 9.5 15.9919 9.5 24C9.5 32.0081 15.9919 38.5 24 38.5C32.0081 38.5 38.5 32.0081 38.5 24Z" fill="white"/>
<path fill-rule="evenodd" clip-rule="evenodd" d="M9.50049 9.5H26.9005V23.0333H9.50049V9.5Z" fill="#1A47B8"/>
<path fill-rule="evenodd" clip-rule="evenodd" d="M26.9005 9.5V11.4333H50.1005V9.5H26.9005ZM26.9005 13.3667V15.3H50.1005V13.3667H26.9005ZM26.9005 17.2333V19.1667H50.1005V17.2333H26.9005ZM26.9005 21.1V23.0333H50.1005V21.1H26.9005ZM9.50049 24.9667V26.9H50.1005V24.9667H9.50049ZM9.50049 28.8333V30.7667H50.1005V28.8333H9.50049ZM9.50049 32.7V34.6333H50.1005V32.7H9.50049ZM9.50049 36.5667V38.5H50.1005V36.5667H9.50049Z" fill="#F93939"/>
<path fill-rule="evenodd" clip-rule="evenodd" d="M11.4337 11.4333V13.3666H13.367V11.4333H11.4337ZM15.3004 11.4333V13.3666H17.2337V11.4333H15.3004ZM19.167 11.4333V13.3666H21.1004V11.4333H19.167ZM23.0337 11.4333V13.3666H24.967V11.4333H23.0337ZM21.1004 13.3666V15.3H23.0337V13.3666H21.1004ZM17.2337 13.3666V15.3H19.167V13.3666H17.2337ZM13.367 13.3666V15.3H15.3004V13.3666H13.367ZM11.4337 15.3V17.2333H13.367V15.3H11.4337ZM15.3004 15.3V17.2333H17.2337V15.3H15.3004ZM19.167 15.3V17.2333H21.1004V15.3H19.167ZM23.0337 15.3V17.2333H24.967V15.3H23.0337ZM11.4337 19.1666V21.1H13.367V19.1666H11.4337ZM15.3004 19.1666V21.1H17.2337V19.1666H15.3004ZM19.167 19.1666V21.1H21.1004V19.1666H19.167ZM23.0337 19.1666V21.1H24.967V19.1666H23.0337ZM21.1004 17.2333V19.1666H23.0337V17.2333H21.1004ZM17.2337 17.2333V19.1666H19.167V17.2333H17.2337ZM13.367 17.2333V19.1666H15.3004V17.2333H13.367Z" fill="white"/>
</g>
</g>
<defs>
<filter id="filter0_di_0_3" x="8.92857" y="8.92857" width="30.1429" height="34.1429" filterUnits="userSpaceOnUse" color-interpolation-filters="sRGB">
<feFlood flood-opacity="0" result="BackgroundImageFix"/>
<feColorMatrix in="SourceAlpha" type="matrix" values="0 0 0 0 0 0 0 0 0 0 0 0 0 0 0 0 0 0 127 0" result="hardAlpha"/>
<feOffset/>
<feGaussianBlur stdDeviation="0.285714"/>
<feComposite in2="hardAlpha" operator="out"/>
<feColorMatrix type="matrix" values="0 0 0 0 0.258824 0 0 0 0 0.278431 0 0 0 0 0.298039 0 0 0 0.32 0"/>
<feBlend mode="normal" in2="BackgroundImageFix" result="effect1_dropShadow_0_3"/>
<feBlend mode="normal" in="SourceGraphic" in2="effect1_dropShadow_0_3" result="shape"/>
<feColorMatrix in="SourceAlpha" type="matrix" values="0 0 0 0 0 0 0 0 0 0 0 0 0 0 0 0 0 0 127 0" result="hardAlpha"/>
<feOffset dy="4.57143"/>
<feGaussianBlur stdDeviation="3.42857"/>
<feComposite in2="hardAlpha" operator="arithmetic" k2="-1" k3="1"/>
<feColorMatrix type="matrix" values="0 0 0 0 0.258824 0 0 0 0 0.278431 0 0 0 0 0.298039 0 0 0 0.08 0"/>
<feBlend mode="normal" in2="shape" result="effect2_innerShadow_0_3"/>
</filter>
</defs>
</svg>
