<svg width="48" height="48" viewBox="0 0 48 48" fill="none" xmlns="http://www.w3.org/2000/svg">
<g filter="url(#filter0_di_1_2)">
<mask id="mask0_1_2" style="mask-type:luminance" maskUnits="userSpaceOnUse" x="7" y="8" width="34" height="32">
<path d="M40.186 24C40.186 15.2639 32.9393 8.18182 24 8.18182C15.0607 8.18182 7.81395 15.2639 7.81395 24C7.81395 32.7361 15.0607 39.8182 24 39.8182C32.9393 39.8182 40.186 32.7361 40.186 24Z" fill="white"/>
</mask>
<g mask="url(#mask0_1_2)">
<path d="M40.186 24C40.186 15.2639 32.9393 8.18182 24 8.18182C15.0607 8.18182 7.81395 15.2639 7.81395 24C7.81395 32.7361 15.0607 39.8182 24 39.8182C32.9393 39.8182 40.186 32.7361 40.186 24Z" fill="white"/>
<path d="M40.186 8.18182H7.81395V24H40.186V8.18182Z" fill="#D71F28"/>
</g>
</g>
<defs>
<filter id="filter0_di_1_2" x="7.24253" y="7.61039" width="33.5149" height="36.7792" filterUnits="userSpaceOnUse" color-interpolation-filters="sRGB">
<feFlood flood-opacity="0" result="BackgroundImageFix"/>
<feColorMatrix in="SourceAlpha" type="matrix" values="0 0 0 0 0 0 0 0 0 0 0 0 0 0 0 0 0 0 127 0" result="hardAlpha"/>
<feOffset/>
<feGaussianBlur stdDeviation="0.285714"/>
<feComposite in2="hardAlpha" operator="out"/>
<feColorMatrix type="matrix" values="0 0 0 0 0.258824 0 0 0 0 0.278431 0 0 0 0 0.298039 0 0 0 0.32 0"/>
<feBlend mode="normal" in2="BackgroundImageFix" result="effect1_dropShadow_1_2"/>
<feBlend mode="normal" in="SourceGraphic" in2="effect1_dropShadow_1_2" result="shape"/>
<feColorMatrix in="SourceAlpha" type="matrix" values="0 0 0 0 0 0 0 0 0 0 0 0 0 0 0 0 0 0 127 0" result="hardAlpha"/>
<feOffset dy="4.57143"/>
<feGaussianBlur stdDeviation="3.42857"/>
<feComposite in2="hardAlpha" operator="arithmetic" k2="-1" k3="1"/>
<feColorMatrix type="matrix" values="0 0 0 0 0.258824 0 0 0 0 0.278431 0 0 0 0 0.298039 0 0 0 0.08 0"/>
<feBlend mode="normal" in2="shape" result="effect2_innerShadow_1_2"/>
</filter>
</defs>
</svg>
