<svg width="48" height="48" viewBox="0 0 48 48" fill="none" xmlns="http://www.w3.org/2000/svg">
<g filter="url(#filter0_di_1_11)">
<mask id="mask0_1_11" style="mask-type:luminance" maskUnits="userSpaceOnUse" x="9" y="9" width="30" height="30">
<path d="M38.5 24C38.5 15.9919 32.0081 9.5 24 9.5C15.9919 9.5 9.5 15.9919 9.5 24C9.5 32.0081 15.9919 38.5 24 38.5C32.0081 38.5 38.5 32.0081 38.5 24Z" fill="white"/>
</mask>
<g mask="url(#mask0_1_11)">
<path d="M38.5 24C38.5 15.9919 32.0081 9.5 24 9.5C15.9919 9.5 9.5 15.9919 9.5 24C9.5 32.0081 15.9919 38.5 24 38.5C32.0081 38.5 38.5 32.0081 38.5 24Z" fill="#DE2910"/>
<path fill-rule="evenodd" clip-rule="evenodd" d="M16 18L16.8536 20H19L17.3232 21.1845L18.1768 23.1845L16 22L13.8232 23.1845L14.6768 21.1845L13 20H15.1464L16 18Z" fill="#FFDE00"/>
<path fill-rule="evenodd" clip-rule="evenodd" d="M21.5 18L22 18.5L21.5 19L21 18.5L21.5 18ZM23.5 20L24 20.5L23.5 21L23 20.5L23.5 20ZM21.5 22L22 22.5L21.5 23L21 22.5L21.5 22Z" fill="#FFDE00"/>
</g>
</g>
<defs>
<filter id="filter0_di_1_11" x="8.92857" y="8.92857" width="30.1429" height="34.1429" filterUnits="userSpaceOnUse" color-interpolation-filters="sRGB">
<feFlood flood-opacity="0" result="BackgroundImageFix"/>
<feColorMatrix in="SourceAlpha" type="matrix" values="0 0 0 0 0 0 0 0 0 0 0 0 0 0 0 0 0 0 127 0" result="hardAlpha"/>
<feOffset/>
<feGaussianBlur stdDeviation="0.285714"/>
<feComposite in2="hardAlpha" operator="out"/>
<feColorMatrix type="matrix" values="0 0 0 0 0.258824 0 0 0 0 0.278431 0 0 0 0 0.298039 0 0 0 0.32 0"/>
<feBlend mode="normal" in2="BackgroundImageFix" result="effect1_dropShadow_1_11"/>
<feBlend mode="normal" in="SourceGraphic" in2="effect1_dropShadow_1_11" result="shape"/>
<feColorMatrix in="SourceAlpha" type="matrix" values="0 0 0 0 0 0 0 0 0 0 0 0 0 0 0 0 0 0 127 0" result="hardAlpha"/>
<feOffset dy="4.57143"/>
<feGaussianBlur stdDeviation="3.42857"/>
<feComposite in2="hardAlpha" operator="arithmetic" k2="-1" k3="1"/>
<feColorMatrix type="matrix" values="0 0 0 0 0.258824 0 0 0 0 0.278431 0 0 0 0 0.298039 0 0 0 0.08 0"/>
<feBlend mode="normal" in2="shape" result="effect2_innerShadow_1_11"/>
</filter>
</defs>
</svg>
