<?xml version="1.0" encoding="UTF-8"?>
<svg version="1.1" xmlns="http://www.w3.org/2000/svg" width="492" height="491">
<path d="M0 0 C1.42031525 0.00323273 1.42031525 0.00323273 2.86932373 0.00653076 C17.05244058 0.05828195 30.9389967 0.43819932 44.875 3.3125 C45.87015625 3.51649414 46.8653125 3.72048828 47.890625 3.93066406 C92.60798815 13.38904722 131.58898978 33.19985975 165.875 63.3125 C166.86628906 64.18003906 167.85757812 65.04757813 168.87890625 65.94140625 C173.63532508 70.18011963 178.12079673 74.46683927 182.21875 79.34765625 C183.94335954 81.39359634 185.74826275 83.34583708 187.5625 85.3125 C198.16179823 97.28274993 206.93519218 110.46865698 214.875 124.3125 C215.30022949 125.04774902 215.72545898 125.78299805 216.16357422 126.54052734 C234.27331636 158.21342892 245.8867178 196.34325959 246.078125 233.0078125 C246.08518463 233.90967789 246.09224426 234.81154327 246.09951782 235.74073792 C246.32849869 273.59111237 246.32849869 273.59111237 242.875 290.3125 C242.67632324 291.29557129 242.47764648 292.27864258 242.27294922 293.29150391 C230.49423487 349.92638584 199.34215664 403.98113623 152.875 439.3125 C151.92246338 440.03904785 151.92246338 440.03904785 150.95068359 440.78027344 C115.21881514 467.84356229 73.49539835 485.21863383 28.875 490.3125 C28.07223633 490.4067627 27.26947266 490.50102539 26.44238281 490.59814453 C-37.35689937 497.28928876 -102.82807745 478.60088701 -152.85546875 438.359375 C-156.01389952 435.75055622 -159.07766096 433.05028085 -162.125 430.3125 C-162.65061523 429.84183105 -163.17623047 429.37116211 -163.71777344 428.88623047 C-167.22664127 425.73629631 -170.68833328 422.54103772 -174.125 419.3125 C-175.10919922 418.39210938 -175.10919922 418.39210938 -176.11328125 417.453125 C-181.26632975 412.47776783 -185.66264748 406.90293523 -190.125 401.3125 C-190.98999989 400.26098966 -191.85590715 399.2102252 -192.72265625 398.16015625 C-229.46012119 353.17359998 -251.14596538 288.99267257 -245.79541016 230.72314453 C-244.06667179 214.01060325 -241.39249476 197.57475131 -237.125 181.3125 C-236.94388672 180.590625 -236.76277344 179.86875 -236.57617188 179.125 C-228.42632033 146.88647285 -211.85019178 117.08716024 -191.125 91.3125 C-190.30773437 90.28898437 -189.49046875 89.26546875 -188.6484375 88.2109375 C-177.9033788 75.01250942 -165.72695114 62.56657287 -152.125 52.3125 C-151.58762207 51.89871094 -151.05024414 51.48492187 -150.49658203 51.05859375 C-135.75975759 39.72829219 -120.0111236 30.09105233 -103.125 22.3125 C-102.42391113 21.98685059 -101.72282227 21.66120117 -101.00048828 21.32568359 C-68.90754012 6.61013772 -35.15055126 -0.14431583 0 0 Z " fill="#000000" transform="translate(246.125,-0.3125)"/>
<path d="M0 0 C112.86 0.33 225.72 0.66 342 1 C342 7.93 342 14.86 342 22 C229.14 22 116.28 22 0 22 C0 14.74 0 7.48 0 0 Z " fill="#FFFFFF" transform="translate(0,234)"/>
</svg>
