<svg width="15" height="15" viewBox="0 0 15 15" fill="none" xmlns="http://www.w3.org/2000/svg">
<path fill-rule="evenodd" clip-rule="evenodd" d="M9.07545 0.803119C9.08516 0.851447 9.09081 0.908 9.10212 1.0211L9.10213 1.02113C9.12348 1.23469 9.13416 1.34147 9.15164 1.41165C9.3141 2.06401 10.0611 2.37344 10.6373 2.02702C10.6993 1.98976 10.7823 1.9218 10.9484 1.7859L10.9484 1.78589C11.0364 1.71393 11.0804 1.67795 11.1214 1.65064C11.4874 1.40703 11.9696 1.43108 12.3096 1.7099C12.3477 1.74116 12.3879 1.78134 12.4682 1.86169L13.1384 2.53182C13.2187 2.61216 13.2589 2.65233 13.2901 2.69043C13.569 3.0304 13.593 3.51264 13.3494 3.87867C13.3221 3.91969 13.2861 3.96366 13.2142 4.05159C13.0783 4.21767 13.0103 4.30071 12.9731 4.36268C12.6266 4.93885 12.9361 5.6859 13.5885 5.84835C13.6586 5.86582 13.7654 5.8765 13.9789 5.89785C14.092 5.90916 14.1485 5.91481 14.1969 5.92451C14.6279 6.01107 14.9519 6.36906 14.9952 6.80662C15 6.85566 15 6.91248 15 7.02611V7.97387C15 8.08744 15 8.14422 14.9952 8.19324C14.9519 8.63084 14.6279 8.98887 14.1968 9.07541C14.1485 9.08511 14.092 9.09076 13.979 9.10206L13.9789 9.10207C13.7656 9.1234 13.6589 9.13407 13.5888 9.15151C12.9363 9.3139 12.6268 10.0611 12.9734 10.6373C13.0106 10.6992 13.0785 10.7822 13.2142 10.9481C13.2861 11.036 13.3221 11.0799 13.3493 11.1209C13.593 11.4869 13.569 11.9693 13.2901 12.3093C13.2588 12.3473 13.2187 12.3875 13.1384 12.4677L12.4682 13.1379C12.3879 13.2183 12.3477 13.2585 12.3096 13.2897C11.9696 13.5685 11.4874 13.5926 11.1214 13.349C11.0804 13.3217 11.0364 13.2857 10.9485 13.2138L10.9484 13.2137C10.7823 13.0778 10.6993 13.0099 10.6373 12.9726C10.0612 12.6262 9.31412 12.9356 9.15167 13.588C9.13419 13.6582 9.12351 13.765 9.10214 13.9787L9.10214 13.9787C9.09081 14.092 9.08515 14.1486 9.07543 14.197C8.98884 14.628 8.63094 14.9519 8.19346 14.9951C8.14436 15 8.08748 15 7.97371 15H7.02618C6.91253 15 6.85571 15 6.80667 14.9952C6.36911 14.9519 6.01113 14.6279 5.92457 14.1969C5.91487 14.1485 5.90921 14.092 5.8979 13.9789L5.8979 13.9789C5.87655 13.7654 5.86587 13.6586 5.84839 13.5884C5.68593 12.936 4.93892 12.6266 4.36275 12.973C4.30077 13.0103 4.21771 13.0783 4.0516 13.2142L4.05158 13.2142C3.96361 13.2862 3.91962 13.3222 3.87859 13.3495C3.51256 13.5931 3.03037 13.569 2.6904 13.2902C2.65228 13.2589 2.6121 13.2188 2.53173 13.1384L1.86167 12.4683C1.78128 12.3879 1.74109 12.3477 1.70983 12.3096C1.43103 11.9697 1.40698 11.4875 1.65057 11.1215C1.67788 11.0804 1.71388 11.0364 1.78587 10.9484C1.92182 10.7823 1.9898 10.6992 2.02707 10.6372C2.37345 10.061 2.06405 9.31407 1.41172 9.15159C1.34152 9.13411 1.23472 9.12343 1.02113 9.10207L1.0211 9.10207C0.907996 9.09076 0.851443 9.0851 0.803111 9.07539C0.372047 8.98883 0.048093 8.63086 0.00484874 8.19333C0 8.14427 0 8.08743 0 7.97376V7.02622C0 6.91249 0 6.85562 0.00485451 6.80653C0.0481202 6.36904 0.372037 6.01111 0.803053 5.92453C0.851414 5.91482 0.908 5.90916 1.02117 5.89784C1.23491 5.87647 1.34178 5.86578 1.41202 5.84828C2.06426 5.68576 2.37363 4.93889 2.02734 4.36277C1.99005 4.30073 1.92202 4.21759 1.78597 4.0513L1.78596 4.0513L1.78595 4.05128C1.71389 3.9632 1.67785 3.91916 1.65052 3.87808C1.407 3.5121 1.43105 3.03001 1.70977 2.69007C1.74106 2.65191 1.78129 2.61168 1.86175 2.53122L2.53172 1.86125L2.53172 1.86125C2.6121 1.78087 2.65229 1.74068 2.69041 1.70942C3.03037 1.43061 3.51256 1.40656 3.87858 1.65016C3.91962 1.67747 3.96363 1.71348 4.05166 1.78551L4.05167 1.78551C4.21772 1.92138 4.30075 1.98931 4.36267 2.02655C4.93889 2.3731 5.68606 2.06361 5.84846 1.41111C5.86591 1.341 5.87658 1.23432 5.89791 1.02097L5.89792 1.02096C5.90921 0.907987 5.91486 0.851502 5.92455 0.803225C6.01108 0.372067 6.36913 0.0480388 6.80676 0.00483723C6.85576 0 6.91253 0 7.02606 0H7.97383C8.08749 0 8.14432 0 8.19337 0.00484792C8.63092 0.0480892 8.98889 0.372048 9.07545 0.803119ZM7.49998 10.5001C9.15683 10.5001 10.5 9.15694 10.5 7.50009C10.5 5.84323 9.15683 4.50009 7.49998 4.50009C5.84312 4.50009 4.49998 5.84323 4.49998 7.50009C4.49998 9.15694 5.84312 10.5001 7.49998 10.5001Z" fill="black"/>
</svg>
